<?xml version="1.0" encoding="utf-8"?>
<!-- Generator: Adobe Illustrator 16.0.0, SVG Export Plug-In . SVG Version: 6.00 Build 0)  -->
<!DOCTYPE svg PUBLIC "-//W3C//DTD SVG 1.1//EN" "http://www.w3.org/Graphics/SVG/1.1/DTD/svg11.dtd">
<svg version="1.1" id="Layer_1" xmlns="http://www.w3.org/2000/svg" xmlns:xlink="http://www.w3.org/1999/xlink" x="0px" y="0px"
	 width="500px" height="500px" viewBox="0 0 500 500" enable-background="new 0 0 500 500" xml:space="preserve">
<g>
	<path fill="#1ED541" d="M500,250c0,138.042-111.918,249.997-249.986,249.997C111.936,499.996,0,388.041,0,250
		C0,111.922,111.936,0.003,250.014,0.003C388.082,0.003,500,111.922,500,250z"/>
	<g>
		<path fill="#FFFFFF" d="M106.158,393.992l20.139-71.57c-12.959-21.986-19.781-47.051-19.781-72.765
			c0-79.228,64.457-143.65,143.667-143.65c79.219,0,143.678,64.422,143.678,143.65c0,79.228-64.459,143.649-143.678,143.649
			c-24.688,0-48.864-6.324-70.234-18.326L106.158,393.992z M183.728,348.855l4.394,2.701c18.653,11.352,40.093,17.371,62.062,17.371
			c65.782,0,119.297-53.514,119.297-119.271c0-65.79-53.516-119.304-119.297-119.304c-65.772,0-119.287,53.514-119.287,119.304
			c0,22.911,6.496,45.171,18.824,64.354l2.958,4.615l-11.592,41.205L183.728,348.855z"/>
		<path fill="#FFFFFF" d="M209.834,182.807l-9.317-0.513c-2.941-0.171-5.797,0.787-8.02,2.736
			c-4.531,3.897-11.747,11.489-13.969,21.371c-3.315,14.772,1.795,32.793,15.045,50.847c13.235,18.055,37.906,46.949,81.53,59.295
			c14.087,3.967,25.133,1.299,33.647-4.172c6.771-4.309,11.421-11.25,13.097-19.115l1.503-6.941c0.444-2.188-0.649-4.445-2.7-5.404
			l-31.527-14.496c-2.052-0.959-4.445-0.377-5.813,1.434l-12.378,16.004c-0.957,1.232-2.531,1.709-4,1.197
			c-8.448-2.975-36.837-14.84-52.396-44.829c-0.685-1.334-0.513-2.907,0.445-4l11.813-13.678c1.214-1.402,1.521-3.351,0.787-5.062
			l-13.575-31.767C213.271,184.005,211.681,182.875,209.834,182.807z"/>
	</g>
</g>
</svg>
