<?xml version="1.0" encoding="utf-8"?>
<!-- Generator: Adobe Illustrator 16.0.0, SVG Export Plug-In . SVG Version: 6.00 Build 0)  -->
<!DOCTYPE svg PUBLIC "-//W3C//DTD SVG 1.1//EN" "http://www.w3.org/Graphics/SVG/1.1/DTD/svg11.dtd">
<svg version="1.1" id="Capa_1" xmlns="http://www.w3.org/2000/svg" xmlns:xlink="http://www.w3.org/1999/xlink" x="0px" y="0px"
	 width="150px" height="150px" viewBox="0 0 150 150" enable-background="new 0 0 150 150" xml:space="preserve">
<g>
	<path fill="#F5E8C9" d="M22.558,17.183h104.794v90.25H22.649L22.558,17.183z"/>
	<path fill="#D18E19" d="M17.135,38.865v87.358c0,4.246,3.436,6.595,7.68,6.595h100.279c4.245,0,7.676-2.349,7.676-6.595V38.865
		C132.77,38.954,17.226,38.865,17.135,38.865z M33.399,24.501l-10.841-7.319v18.069h10.841V24.501L33.399,24.501z M127.352,17.183
		L116.51,24.41v10.841h10.842V17.183z"/>
	<path fill="#E4C44F" d="M33.399,38.865V24.41L17.048,38.865H33.399z M116.51,24.41v14.455h16.442L116.51,24.41z"/>
</g>
</svg>
