<?xml version="1.0" encoding="utf-8"?>
<!-- Generator: Adobe Illustrator 16.0.0, SVG Export Plug-In . SVG Version: 6.00 Build 0)  -->
<!DOCTYPE svg PUBLIC "-//W3C//DTD SVG 1.1//EN" "http://www.w3.org/Graphics/SVG/1.1/DTD/svg11.dtd">
<svg version="1.1" id="Capa_1" xmlns="http://www.w3.org/2000/svg" xmlns:xlink="http://www.w3.org/1999/xlink" x="0px" y="0px"
	 width="150px" height="150px" viewBox="0 0 150 150" enable-background="new 0 0 150 150" xml:space="preserve">
<g>
	<g>
		<path d="M137.49,32.378L54.611,14.84c-3.496-0.746-6.968,1.523-7.708,5.023l-1.578,10.119l95.613,20.234l1.569-10.115
			C143.256,36.596,140.986,33.12,137.49,32.378z"/>
		<path d="M102.638,52.363c-0.968-3.484-4.611-5.545-8.092-4.584l-15.719,4.367l-37.088-7.844l-4.09,19.265l-25.477,7.08
			c-3.489,0.962-5.563,4.608-4.579,8.085l14.369,51.759c0.968,3.476,4.603,5.537,8.083,4.574l82.365-22.854
			c3.505-0.976,5.563-4.615,4.587-8.099l-2.456-8.88l9.238,1.951c3.505,0.735,6.968-1.521,7.708-5.034l5.863-27.612l-33.283-7.047
			L102.638,52.363z M112.16,78.667l2.024-9.636c0.31-1.438,1.748-2.37,3.18-2.063l9.628,2.036c1.455,0.307,2.374,1.734,2.065,3.173
			l-2.033,9.637c-0.302,1.436-1.725,2.366-3.171,2.062l-9.637-2.028C112.786,81.53,111.851,80.107,112.16,78.667z M13.604,75.81
			l22.794-6.318L90.18,54.558l5.806-1.608c0.099-0.035,0.203-0.043,0.302-0.043c0.472,0,1.016,0.305,1.179,0.889l0.683,2.445
			l2.131,7.673L15.571,87.421l-2.813-10.119C12.587,76.67,12.978,75.983,13.604,75.81z M111.834,105.543
			c0.098,0.39,0,0.716-0.121,0.919c-0.115,0.202-0.334,0.467-0.724,0.576l-82.383,22.859c-0.099,0.023-0.203,0.04-0.301,0.04
			c-0.471,0-1.033-0.301-1.188-0.886l-8.367-30.186l84.708-23.509l5.163,18.622L111.834,105.543z"/>
		<path d="M41.926,107.604c-0.39-1.418-1.878-2.256-3.301-1.857l-9.62,2.662c-1.423,0.399-2.261,1.888-1.87,3.299l2.675,9.62
			c0.391,1.423,1.879,2.268,3.302,1.87l9.629-2.677c1.415-0.389,2.251-1.877,1.862-3.301L41.926,107.604z"/>
	</g>
</g>
</svg>
