<?xml version="1.0" encoding="utf-8"?>
<!-- Generator: Adobe Illustrator 16.0.0, SVG Export Plug-In . SVG Version: 6.00 Build 0)  -->
<!DOCTYPE svg PUBLIC "-//W3C//DTD SVG 1.1//EN" "http://www.w3.org/Graphics/SVG/1.1/DTD/svg11.dtd">
<svg version="1.1" id="Capa_1" xmlns="http://www.w3.org/2000/svg" xmlns:xlink="http://www.w3.org/1999/xlink" x="0px" y="0px"
	 width="150px" height="150px" viewBox="0 0 150 150" enable-background="new 0 0 150 150" xml:space="preserve">
<g>
	<g>
		<g>
			<path d="M120.849,95.107c-6.335-5.087-11.334-7.461-15.733-7.461c-5.359,0-8.804,3.494-12.449,7.195l-1.12,1.131
				c-0.078,0.078-0.322,0.322-1.021,0.322c-1.42,0-3.783-1.004-6.49-2.758c-3.955-2.574-8.95-6.867-14.84-12.754
				c-7.673-7.666-12.572-13.746-14.563-18.079c-1.498-3.257-0.717-4.172-0.627-4.267l1.12-1.104
				c6.435-6.336,12.51-12.321-0.244-28.193c-4.333-5.375-8.615-8.077-13.093-8.266l-0.51-0.006c-6.241,0-11.04,5.043-14.939,9.148
				c-0.645,0.665-1.266,1.32-1.875,1.931c-4.717,4.715-4.799,14.756-0.229,26.861c4.899,12.987,14.557,27.105,27.201,39.743
				c12.631,12.637,26.746,22.295,39.732,27.195c5.881,2.213,11.412,3.383,15.995,3.383c4.737,0,8.504-1.248,10.878-3.617
				c0.521-0.525,1.082-1.061,1.652-1.604l0.317-0.299c4.394-4.166,9.37-8.893,9.104-15.412
				C128.926,103.706,126.225,99.424,120.849,95.107z M41.311,26.738l0.232,0.012c2.658,0.111,5.604,2.152,8.755,6.069
				c9.431,11.732,6.513,14.601,0.698,20.326l-1.137,1.132c-5.354,5.354-0.672,14.813,15.178,30.661
				c6.17,6.163,11.484,10.712,15.795,13.52c6.657,4.327,11.717,4.833,14.873,1.659l1.148-1.16c3.079-3.117,5.31-5.369,8.449-5.369
				c2.913,0,6.686,1.936,11.86,6.096c3.923,3.146,5.97,6.092,6.075,8.749c0.16,3.851-3.789,7.601-7.34,10.974
				c-0.698,0.66-1.375,1.309-2.02,1.947c-1.242,1.248-3.545,1.902-6.657,1.902c-3.933,0-8.771-1.037-13.979-3.006
				c-12.227-4.611-25.598-13.792-37.659-25.848C43.524,82.336,34.343,68.967,29.727,56.74c-3.561-9.447-4.005-17.741-1.109-20.637
				c0.517-0.517,1.043-1.065,1.587-1.632l0.444-0.46C33.883,30.6,37.555,26.738,41.311,26.738z"/>
			<path d="M105.071,65.167c0.305,0.727,0.876,1.287,1.614,1.587c0.35,0.139,0.721,0.211,1.098,0.211
				c1.204,0,2.275-0.716,2.724-1.825c2.979-7.351,1.282-15.723-4.326-21.331c-3.656-3.661-8.749-5.758-13.969-5.758
				c-2.813,0-5.532,0.582-8.072,1.735c-0.716,0.322-1.266,0.905-1.542,1.632c-0.271,0.737-0.25,1.536,0.071,2.246
				c0.645,1.438,2.464,2.125,3.884,1.477c5.109-2.292,11.533-1.121,15.473,2.818c3.938,3.943,5.131,9.818,3.04,14.962
				C104.766,63.647,104.771,64.44,105.071,65.167z"/>
			<path d="M79.485,29.496c4-1.809,8.271-2.729,12.692-2.729c8.222,0,16.238,3.301,21.985,9.054
				c8.826,8.82,11.5,21.996,6.813,33.563c-0.301,0.727-0.294,1.525,0.005,2.246c0.305,0.727,0.876,1.282,1.604,1.576
				c0.36,0.144,0.727,0.222,1.108,0.222c1.204,0,2.275-0.722,2.725-1.837c5.581-13.758,2.408-29.43-8.099-39.932
				c-6.841-6.846-16.371-10.768-26.152-10.768c-5.265,0-10.347,1.087-15.107,3.239c-1.47,0.666-2.129,2.413-1.464,3.895
				C76.232,29.446,77.977,30.15,79.485,29.496z"/>
		</g>
	</g>
</g>
</svg>
