<?xml version="1.0" encoding="utf-8"?>
<!-- Generator: Adobe Illustrator 16.0.0, SVG Export Plug-In . SVG Version: 6.00 Build 0)  -->
<!DOCTYPE svg PUBLIC "-//W3C//DTD SVG 1.1//EN" "http://www.w3.org/Graphics/SVG/1.1/DTD/svg11.dtd">
<svg version="1.1" id="Capa_1" xmlns="http://www.w3.org/2000/svg" xmlns:xlink="http://www.w3.org/1999/xlink" x="0px" y="0px"
	 width="150px" height="150px" viewBox="0 0 150 150" enable-background="new 0 0 150 150" xml:space="preserve">
<g>
	<g>
		<path d="M125.925,47.153l-11.567-11.578c-1.375-1.364-3.604-1.364-4.968,0l-48.24,48.239L40.633,63.288
			c-1.375-1.364-3.604-1.364-4.968,0L24.088,74.878c-1.364,1.376-1.364,3.591,0,4.956l34.579,34.579
			c0.68,0.682,1.568,1.035,2.482,1.035c0.889,0,1.79-0.354,2.472-1.035l62.304-62.292c0.658-0.658,1.011-1.547,1.011-2.484
			C126.936,48.7,126.583,47.823,125.925,47.153z"/>
	</g>
</g>
</svg>
