<?xml version="1.0" encoding="utf-8"?>
<!-- Generator: Adobe Illustrator 16.0.0, SVG Export Plug-In . SVG Version: 6.00 Build 0)  -->
<!DOCTYPE svg PUBLIC "-//W3C//DTD SVG 1.1//EN" "http://www.w3.org/Graphics/SVG/1.1/DTD/svg11.dtd">
<svg version="1.1" id="Capa_1" xmlns="http://www.w3.org/2000/svg" xmlns:xlink="http://www.w3.org/1999/xlink" x="0px" y="0px"
	 width="150px" height="150px" viewBox="0 0 150 150" enable-background="new 0 0 150 150" xml:space="preserve">
<g>
	<g>
		<path d="M75.007,13.693c-33.808,0-61.314,27.507-61.314,61.3c0,33.808,27.507,61.314,61.314,61.314
			c33.807,0,61.299-27.506,61.299-61.314C136.307,41.2,108.814,13.693,75.007,13.693z M98.717,91.292
			c2.066,2.065,2.066,5.401,0,7.438c-1.033,1.033-2.361,1.534-3.719,1.534c-1.342,0-2.686-0.501-3.689-1.534L75.004,82.438
			L58.712,98.729c-1.033,1.033-2.376,1.534-3.719,1.534s-2.7-0.501-3.733-1.534c-2.036-2.036-2.036-5.372,0-7.438L67.566,75
			L51.26,58.708c-2.036-2.051-2.036-5.371,0-7.423c2.066-2.065,5.401-2.065,7.452,0l16.292,16.292l16.305-16.292
			c2.037-2.065,5.357-2.065,7.408,0c2.066,2.052,2.066,5.372,0,7.423L82.426,75L98.717,91.292z"/>
	</g>
</g>
</svg>
