<?xml version="1.0" encoding="utf-8"?>
<!-- Generator: Adobe Illustrator 16.0.0, SVG Export Plug-In . SVG Version: 6.00 Build 0)  -->
<!DOCTYPE svg PUBLIC "-//W3C//DTD SVG 1.1//EN" "http://www.w3.org/Graphics/SVG/1.1/DTD/svg11.dtd">
<svg version="1.1" id="Capa_1" xmlns="http://www.w3.org/2000/svg" xmlns:xlink="http://www.w3.org/1999/xlink" x="0px" y="0px"
	 width="150px" height="150px" viewBox="0 0 150 150" enable-background="new 0 0 150 150" xml:space="preserve">
<g>
	<path id="Facebook_2_" d="M61.847,44.593c0,2.502,0,13.664,0,13.664H51.833v16.715h10.014v49.663h20.571V74.972h13.807
		c0,0,1.287-8.011,1.916-16.775c-1.793,0-15.645,0-15.645,0s0-9.726,0-11.423c0-1.709,2.246-4.011,4.459-4.011s6.879,0,11.211,0
		c0-2.274,0-10.136,0-17.397c-5.779,0-12.348,0-15.238,0C61.343,25.365,61.847,42.097,61.847,44.593z"/>
</g>
</svg>
