<?xml version="1.0" encoding="utf-8"?>
<!-- Generator: Adobe Illustrator 16.0.0, SVG Export Plug-In . SVG Version: 6.00 Build 0)  -->
<!DOCTYPE svg PUBLIC "-//W3C//DTD SVG 1.1//EN" "http://www.w3.org/Graphics/SVG/1.1/DTD/svg11.dtd">
<svg version="1.1" id="Capa_1" xmlns="http://www.w3.org/2000/svg" xmlns:xlink="http://www.w3.org/1999/xlink" x="0px" y="0px"
	 width="150px" height="150px" viewBox="0 0 150 150" enable-background="new 0 0 150 150" xml:space="preserve">
<g>
	<g>
		<path d="M82.673,123.143c-0.976,1.361-2.383,2.354-4.009,2.811l-7.994,2.174c-0.633,0.184-1.283,0.277-1.935,0.277
			c-1.472,0-2.903-0.457-4.107-1.301c-1.739-1.24-2.869-3.16-3.049-5.266l-0.698-8.262c-0.172-1.693,0.292-3.4,1.252-4.766
			l0.317-0.428H33.866c-2.293,0-4.171-1.898-4.171-4.199s1.878-4.205,4.171-4.205h34.568l7.732-11.035H33.866
			c-2.293,0-4.171-1.9-4.171-4.211c0-2.293,1.878-4.199,4.171-4.199L82.12,80.41l18.102-25.947V35.248
			c0-3.158-2.447-5.695-5.604-5.695h-13.84V40.51c0,5.184-4.236,9.27-9.408,9.27H43.526c-5.188,0-9.277-4.098-9.277-9.27V29.553
			H20.263c-3.147,0-5.726,2.549-5.726,5.695v98.021c0,3.16,2.578,5.855,5.726,5.855h74.355c3.156,0,5.604-2.695,5.604-5.855V98.23
			L82.673,123.143z M33.866,61.088h47.147c2.294,0,4.172,1.898,4.172,4.199c0,2.307-1.878,4.209-4.172,4.209H33.866
			c-2.293,0-4.171-1.902-4.171-4.209C29.695,62.986,31.573,61.088,33.866,61.088z"/>
		<path d="M43.593,44.268h27.834c2.123,0,3.839-1.711,3.839-3.82V24.432c0-2.105-1.716-3.816-3.839-3.816H67.23
			c-0.016-5.385-4.398-9.74-9.79-9.74s-9.774,4.355-9.791,9.74h-4.057c-2.123,0-3.822,1.711-3.822,3.816v16.016
			C39.771,42.557,41.47,44.268,43.593,44.268z M57.44,16.307c2.391,0,4.335,1.916,4.366,4.309h-8.749
			C53.09,18.223,55.042,16.307,57.44,16.307z"/>
		<path d="M135.423,36.643c-0.13-0.715-0.528-1.342-1.146-1.756l-6.961-4.844c-0.464-0.334-1.017-0.496-1.545-0.496
			c-0.83,0-1.691,0.404-2.204,1.162L74.2,101.492l11.417,7.943l49.351-70.779C135.375,38.074,135.546,37.344,135.423,36.643z"/>
		<path d="M66.426,113.039l0.699,8.318c0.057,0.48,0.31,0.91,0.684,1.176c0.276,0.191,0.602,0.305,0.927,0.305
			c0.146,0,0.292-0.016,0.431-0.057l8.042-2.217c0.375-0.098,0.668-0.313,0.911-0.625l3.009-4.336l-11.393-7.951l-3.032,4.33
			C66.474,112.291,66.394,112.674,66.426,113.039z"/>
	</g>
</g>
</svg>
