<?xml version="1.0" encoding="utf-8"?>
<!-- Generator: Adobe Illustrator 16.0.0, SVG Export Plug-In . SVG Version: 6.00 Build 0)  -->
<!DOCTYPE svg PUBLIC "-//W3C//DTD SVG 1.1//EN" "http://www.w3.org/Graphics/SVG/1.1/DTD/svg11.dtd">
<svg version="1.1" id="Capa_1" xmlns="http://www.w3.org/2000/svg" xmlns:xlink="http://www.w3.org/1999/xlink" x="0px" y="0px"
	 width="150px" height="150px" viewBox="0 0 150 150" enable-background="new 0 0 150 150" xml:space="preserve">
<g>
	<g>
		<path d="M101.873,95.168c-1.678,0-3.036,1.35-3.036,3.013v3.087c0,12.568-10.212,22.801-22.789,22.801
			c-12.554,0-22.783-10.232-22.783-22.801V88.185c0-1.663-1.35-3.007-3.003-3.007c-1.677,0-3.019,1.344-3.019,3.007v13.083
			c0,15.893,12.931,28.815,28.805,28.815c15.897,0,28.82-12.923,28.82-28.815v-3.087C104.868,96.518,103.533,95.168,101.873,95.168z
			"/>
		<path d="M120.883,84.553c-0.346-6.01-2.906-11.938-7.247-16.121c-4.464-4.332-10.369-7.048-16.604-7.048h-0.415
			c-6.229,0-12.134,2.785-16.604,7.129c-1.78,1.72-3.285,3.882-4.444,6.052c-1.15-2.17-2.648-4.429-4.441-6.159
			c-4.473-4.343-10.37-7.021-16.592-7.021h-0.436c-6.229,0-12.287,2.785-16.761,7.129c-0.561,0.524-1.733,1.469-1.733,2.044V43.485
			c0-10.014,8.487-19.203,18.494-19.203h0.436c10.015,0,18.17,9.189,18.17,19.203v18.248c0,1.591,1.689,2.868,3.292,2.868
			c1.564,0,3.263-1.277,3.263-2.868V43.485c0-10.014,7.329-19.203,17.357-19.203h0.415c10.035,0,17.15,9.189,17.15,19.203v18.842
			c0,1.595,1.698,2.872,3.263,2.872c1.602,0,3.284-1.277,3.284-2.872V43.485c0-13.174-10.51-23.568-23.697-23.568h-0.415
			c-8.849,0-16.9,4.86-21.049,12.559c-4.139-7.698-12.177-12.559-21.033-12.559h-0.436c-13.167,0-25.048,10.395-25.048,23.568
			v41.818c0,1.578,1.874,2.867,3.482,2.867c1.544,0,3.108-1.192,3.144-2.738c0.362-9.821,8.613-17.484,18.422-17.484h0.436
			c9.801,0,17.772,7.663,18.135,17.484c0.058,1.546,1.313,2.752,2.936,2.752c1.565,0,2.818-1.206,2.863-2.752
			c0.37-9.81,8.325-17.484,18.148-17.484h0.415c9.823,0,17.785,7.361,18.148,17.182c0.059,1.556,1.297,2.458,2.861,2.458h0.038
			c1.578,0,2.87-0.995,2.87-2.575C120.949,84.808,120.935,84.756,120.883,84.553z"/>
	</g>
</g>
</svg>
