<?xml version="1.0" encoding="utf-8"?>
<!-- Generator: Adobe Illustrator 16.0.0, SVG Export Plug-In . SVG Version: 6.00 Build 0)  -->
<!DOCTYPE svg PUBLIC "-//W3C//DTD SVG 1.1//EN" "http://www.w3.org/Graphics/SVG/1.1/DTD/svg11.dtd">
<svg version="1.1" id="Capa_1" xmlns="http://www.w3.org/2000/svg" xmlns:xlink="http://www.w3.org/1999/xlink" x="0px" y="0px"
	 width="150px" height="150px" viewBox="0 0 150 150" enable-background="new 0 0 150 150" xml:space="preserve">
<g>
	<g>
		<path d="M102.242,93.389c-1.77,0-3.207,1.439-3.207,3.229v3.299c0,13.484-10.969,24.44-24.444,24.44
			c-13.484,0-24.451-10.956-24.451-24.44V85.895c0-1.79-1.439-3.235-3.218-3.235c-1.771,0-3.227,1.445-3.227,3.235v14.022
			c0,17.039,13.86,30.898,30.896,30.898c17.032,0,30.893-13.859,30.893-30.898v-3.299C105.484,94.828,104.029,93.389,102.242,93.389
			z"/>
		<path d="M105.395,49.801c0.768-1.062,1.271-2.354,1.271-3.763c0-3.517-2.873-6.381-6.4-6.381h-3.512
			c-1.484,0-2.709,0.978-3.129,2.287c-0.111,0.251-0.17,0.527-0.17,0.814v0.2v6.153v3.076v8.894v0.115c0,0.16,0.037,0.31,0.059,0.45
			c0.258,1.559,1.617,2.723,3.24,2.723h5.004c4.273,0,7.771-3.461,7.771-7.728C109.529,53.676,107.838,51.1,105.395,49.801z
			 M97.402,43.609h2.863c1.338,0,2.43,1.087,2.43,2.429c0,1.325-1.092,2.414-2.43,2.414h-2.863V43.609z M101.758,60.42h-4.355
			v-7.567h4.355c2.104,0,3.793,1.687,3.793,3.79C105.551,58.732,103.861,60.42,101.758,60.42z"/>
		<path d="M70.945,67.321v-35.38l-0.028-0.113c0-0.154-0.045-0.289-0.091-0.441c-0.036-0.109-0.088-0.219-0.139-0.309
			c-0.096-0.229-0.223-0.376-0.296-0.503l-0.25-0.287c-0.186-0.147-0.348-0.263-0.504-0.361l-0.146-0.089L43.905,19.744
			c-2.496-0.984-5.272-0.652-7.471,0.854c-2.229,1.508-3.469,4.028-3.469,6.728v2.24c-4.6,0.1-6.9,3.7-6.9,8.154v28.865
			c0,4.479,2.398,8.095,6.894,8.095H63.6C67.645,74.68,70.945,71.403,70.945,67.321z M37.571,27.335c0,0-0.34-3.675,4.259-1.963
			l14.148,5.549H37.571V27.335z M30.3,66.585V37.72c0-1.58,0.017-2.188,1.581-2.188h35.602v31.827c0,1.14-2.73,2.716-3.883,2.716
			H31.881C30.317,70.075,30.3,68.149,30.3,66.585z"/>
		<g>
			<path d="M59.809,61.396L49.572,40.783c-0.022-0.015-0.022-0.023-0.022-0.023c-0.037-0.087-0.096-0.15-0.141-0.202
				c-0.021-0.062-0.058-0.114-0.098-0.159c-0.042-0.039-0.087-0.091-0.146-0.128c-0.039-0.063-0.104-0.117-0.133-0.159
				c-0.074-0.043-0.098-0.067-0.149-0.093c-0.071-0.036-0.13-0.1-0.198-0.121c-0.022-0.015-0.036-0.031-0.059-0.042
				c-0.021-0.01-0.058-0.025-0.111-0.037c-0.066-0.024-0.125-0.062-0.214-0.084c-0.051-0.016-0.116-0.025-0.191-0.039
				c-0.059-0.027-0.116-0.027-0.2-0.038c-0.059,0-0.13,0-0.198,0c-0.074,0-0.141,0-0.199,0c-0.06,0.011-0.135,0.011-0.2,0.038
				c-0.043,0.014-0.126,0.023-0.185,0.039c-0.065,0.022-0.141,0.046-0.214,0.084c-0.043,0.012-0.072,0.027-0.118,0.037
				c0,0.011-0.022,0.011-0.029,0.042c-0.066,0.021-0.139,0.085-0.221,0.121c-0.029,0.039-0.08,0.05-0.134,0.093
				c-0.066,0.042-0.103,0.096-0.161,0.159c-0.039,0.037-0.075,0.089-0.133,0.128c-0.029,0.045-0.065,0.111-0.098,0.159
				c-0.052,0.062-0.088,0.115-0.116,0.188c-0.022,0.014-0.045,0.022-0.045,0.037L35.615,61.396
				c-0.517,1.027-0.089,2.263,0.924,2.765c0.302,0.15,0.62,0.21,0.928,0.21c0.761,0,1.478-0.414,1.854-1.136l1.874-3.767h13.048
				l1.866,3.767c0.362,0.722,1.094,1.136,1.86,1.136c0.305,0,0.619-0.06,0.924-0.21C59.925,63.658,60.332,62.423,59.809,61.396z
				 M43.246,55.34l4.466-8.993l4.473,8.993H43.246z"/>
		</g>
		<path d="M86.383,74.68h30.658c4.496,0,6.895-3.616,6.895-8.095V37.72c0-4.454-2.289-8.055-6.908-8.154v-2.24
			c0-2.699-1.24-5.22-3.459-6.728c-2.201-1.506-4.984-1.838-7.486-0.854L80.518,29.838l-0.164,0.089
			c-0.146,0.099-0.309,0.214-0.494,0.361l-0.25,0.287c-0.088,0.127-0.199,0.274-0.309,0.503c-0.045,0.09-0.107,0.199-0.127,0.309
			c-0.053,0.152-0.082,0.287-0.109,0.441l-0.029,0.113v35.38C79.035,71.403,82.332,74.68,86.383,74.68z M112.43,30.921H94.016
			l14.148-5.549c4.588-1.712,4.266,1.963,4.266,1.963V30.921z M118.119,70.075H86.383c-1.135,0-3.871-1.576-3.871-2.716V35.532
			h35.607c1.564,0,1.58,0.607,1.58,2.188v28.865C119.699,68.149,119.684,70.075,118.119,70.075z"/>
	</g>
</g>
</svg>
