<?xml version="1.0" encoding="utf-8"?>
<!-- Generator: Adobe Illustrator 16.0.0, SVG Export Plug-In . SVG Version: 6.00 Build 0)  -->
<!DOCTYPE svg PUBLIC "-//W3C//DTD SVG 1.1//EN" "http://www.w3.org/Graphics/SVG/1.1/DTD/svg11.dtd">
<svg version="1.1" id="Capa_1" xmlns="http://www.w3.org/2000/svg" xmlns:xlink="http://www.w3.org/1999/xlink" x="0px" y="0px"
	 width="150px" height="150px" viewBox="0 0 150 150" enable-background="new 0 0 150 150" xml:space="preserve">
<g>
	<g>
		<path d="M519.333,163.387c-0.976,1.361-2.383,2.354-4.009,2.811l-7.994,2.174c-0.633,0.184-1.283,0.277-1.935,0.277
			c-1.472,0-2.903-0.457-4.107-1.301c-1.739-1.24-2.869-3.16-3.049-5.266l-0.698-8.262c-0.172-1.693,0.292-3.4,1.252-4.766
			l0.317-0.428h-28.584c-2.293,0-4.171-1.898-4.171-4.199s1.878-4.205,4.171-4.205h34.568l7.732-11.035h-42.301
			c-2.293,0-4.171-1.9-4.171-4.211c0-2.293,1.878-4.199,4.171-4.199l48.254-0.123l18.102-25.947V75.493
			c0-3.158-2.447-5.695-5.604-5.695h-13.84v10.957c0,5.184-4.236,9.27-9.408,9.27h-27.844c-5.188,0-9.277-4.098-9.277-9.27V69.797
			h-13.986c-3.147,0-5.726,2.549-5.726,5.695v98.021c0,3.16,2.578,5.855,5.726,5.855h74.355c3.156,0,5.604-2.695,5.604-5.855
			v-35.039L519.333,163.387z M470.526,101.332h47.147c2.294,0,4.172,1.898,4.172,4.199c0,2.307-1.878,4.209-4.172,4.209h-47.147
			c-2.293,0-4.171-1.902-4.171-4.209C466.355,103.23,468.233,101.332,470.526,101.332z"/>
		<path d="M480.253,84.512h27.834c2.123,0,3.839-1.711,3.839-3.82V64.676c0-2.105-1.716-3.816-3.839-3.816h-4.196
			c-0.016-5.385-4.398-9.74-9.79-9.74s-9.774,4.355-9.791,9.74h-4.057c-2.123,0-3.822,1.711-3.822,3.816v16.015
			C476.431,82.801,478.13,84.512,480.253,84.512z M494.101,56.551c2.391,0,4.335,1.916,4.366,4.309h-8.749
			C489.75,58.467,491.702,56.551,494.101,56.551z"/>
		<path d="M572.083,76.887c-0.13-0.715-0.528-1.342-1.146-1.755l-6.961-4.844c-0.464-0.334-1.017-0.496-1.545-0.496
			c-0.83,0-1.691,0.404-2.204,1.162l-49.367,70.783l11.417,7.943L571.628,78.9C572.035,78.318,572.206,77.588,572.083,76.887z"/>
		<path d="M503.086,153.283l0.699,8.318c0.057,0.48,0.31,0.91,0.684,1.176c0.276,0.191,0.602,0.305,0.927,0.305
			c0.146,0,0.292-0.016,0.431-0.057l8.042-2.217c0.375-0.098,0.668-0.313,0.911-0.625l3.009-4.336l-11.393-7.951l-3.032,4.33
			C503.134,152.535,503.054,152.918,503.086,153.283z"/>
	</g>
</g>
<g>
	<g>
		<path d="M648.766,386.204l-82.879-17.538c-3.496-0.746-6.968,1.523-7.708,5.023l-1.578,10.119l95.613,20.234l1.569-10.115
			C654.531,390.422,652.262,386.946,648.766,386.204z"/>
		<path d="M613.913,406.189c-0.968-3.484-4.611-5.545-8.092-4.584l-15.719,4.367l-37.088-7.844l-4.09,19.265l-25.477,7.08
			c-3.489,0.962-5.563,4.608-4.579,8.085l14.369,51.759c0.968,3.476,4.603,5.537,8.083,4.574l82.365-22.854
			c3.505-0.976,5.563-4.615,4.587-8.099l-2.456-8.88l9.238,1.951c3.505,0.735,6.968-1.521,7.708-5.034l5.863-27.612l-33.283-7.047
			L613.913,406.189z M623.436,432.493l2.024-9.636c0.31-1.438,1.748-2.37,3.18-2.063l9.628,2.036
			c1.455,0.307,2.374,1.734,2.065,3.173l-2.033,9.637c-0.302,1.436-1.725,2.366-3.171,2.062l-9.637-2.028
			C624.062,435.356,623.126,433.934,623.436,432.493z M524.879,429.636l22.794-6.318l53.782-14.934l5.806-1.608
			c0.099-0.035,0.203-0.043,0.302-0.043c0.472,0,1.016,0.305,1.179,0.889l0.683,2.445l2.131,7.673l-84.708,23.508l-2.813-10.119
			C523.862,430.496,524.253,429.81,524.879,429.636z M623.109,459.369c0.098,0.39,0,0.716-0.121,0.919
			c-0.115,0.202-0.334,0.467-0.724,0.576l-82.383,22.859c-0.099,0.023-0.203,0.04-0.301,0.04c-0.471,0-1.033-0.301-1.188-0.886
			l-8.367-30.186l84.708-23.509l5.163,18.622L623.109,459.369z"/>
		<path d="M553.201,461.43c-0.39-1.418-1.878-2.256-3.301-1.857l-9.62,2.662c-1.423,0.399-2.261,1.888-1.87,3.299l2.675,9.62
			c0.391,1.423,1.879,2.268,3.302,1.87l9.629-2.677c1.415-0.389,2.251-1.877,1.862-3.301L553.201,461.43z"/>
	</g>
</g>
<g>
	<g>
		<path d="M614.52-59.45l-11.567-11.578c-1.375-1.364-3.604-1.364-4.968,0l-48.24,48.239l-20.517-20.527
			c-1.375-1.364-3.604-1.364-4.968,0l-11.577,11.591c-1.364,1.376-1.364,3.591,0,4.956l34.579,34.579
			c0.68,0.682,1.568,1.035,2.482,1.035c0.889,0,1.79-0.354,2.472-1.035l62.304-62.291c0.658-0.658,1.011-1.547,1.011-2.484
			C615.53-57.903,615.178-58.781,614.52-59.45z"/>
	</g>
</g>
<g>
	<g>
		<path d="M380.729-365.049c-33.809,0-61.314,27.507-61.314,61.3c0,33.808,27.506,61.314,61.314,61.314
			c33.807,0,61.299-27.506,61.299-61.314C442.028-337.542,414.536-365.049,380.729-365.049z M404.438-287.45
			c2.066,2.065,2.066,5.401,0,7.438c-1.033,1.033-2.361,1.534-3.719,1.534c-1.342,0-2.686-0.501-3.689-1.534l-16.305-16.292
			l-16.292,16.292c-1.033,1.033-2.376,1.534-3.719,1.534s-2.7-0.501-3.733-1.534c-2.036-2.036-2.036-5.372,0-7.438l16.307-16.292
			l-16.307-16.292c-2.036-2.051-2.036-5.371,0-7.423c2.066-2.065,5.401-2.065,7.452,0l16.292,16.292l16.305-16.292
			c2.037-2.065,5.357-2.065,7.408,0c2.066,2.052,2.066,5.372,0,7.423l-16.291,16.292L404.438-287.45z"/>
	</g>
</g>
<g>
	<g>
		<g>
			<path d="M573.22-65.981c0-1.328-1.075-2.402-2.401-2.402c-1.112,0-2.046,0.754-2.318,1.777l-2.307,8.564l-3.373,2.246
				c-1.099,0.736-2.55,1.105-4.001,1.105c-1.449,0-2.897-0.369-3.999-1.105l-6.422-4.279c-1.104-0.732-2.549-1.1-3.998-1.1
				c-1.453,0-2.902,0.367-4.003,1.1l-6.42,4.279c-1.103,0.736-2.55,1.105-4.001,1.105c-1.448,0-2.899-0.369-4-1.105l-6.42-4.279
				c-1.1-0.732-2.549-1.1-3.999-1.1c-1.451,0-2.9,0.367-3.998,1.1l-6.422,4.279c-1.098,0.736-2.549,1.105-4,1.105
				c-1.453,0-2.9-0.369-4.002-1.105l-6.422-4.279c-1.098-0.732-2.547-1.1-3.996-1.1c-1.453,0-2.902,0.367-4,1.1l-6.422,4.279
				c-1.102,0.736-2.549,1.105-4,1.105c-1.449,0-2.904-0.369-4.002-1.105l-3.416-2.279l-2.301-8.531
				c-0.275-1.023-1.205-1.777-2.318-1.777c-1.33,0-2.406,1.074-2.406,2.402c0,0.215,0.031,0.424,0.088,0.623h-0.002l17.305,64.273
				h80.591l17.306-64.273h-0.003C573.192-65.558,573.22-65.767,573.22-65.981z M552.151-5.896h-73.227l-12.184-45.254
				c1.639,0.82,3.568,1.262,5.555,1.262c2.453,0,4.816-0.678,6.664-1.908l6.422-4.281c0.15-0.098,0.627-0.289,1.336-0.289
				c0.707,0,1.18,0.191,1.33,0.289l6.422,4.281c1.844,1.23,4.211,1.908,6.668,1.908c2.453,0,4.82-0.678,6.664-1.908l6.42-4.281
				c0.156-0.098,0.627-0.289,1.336-0.289s1.181,0.191,1.329,0.289l6.423,4.281c1.845,1.23,4.214,1.908,6.667,1.908
				c2.455,0,4.82-0.678,6.663-1.908l6.425-4.281c0.153-0.098,0.627-0.289,1.336-0.289c0.707,0,1.179,0.191,1.333,0.289l6.418,4.281
				c1.85,1.23,4.217,1.908,6.668,1.908c1.97,0,3.88-0.434,5.512-1.244L552.151-5.896z"/>
		</g>
	</g>
	<g>
		<path fill-rule="evenodd" clip-rule="evenodd" d="M459.856-1.845c-2.426,1.166-4.916,0.963-5.553-0.445
			c-0.643-1.41,0.803-3.498,3.23-4.658l113.684-54.416c2.426-1.162,4.914-0.963,5.552,0.447c0.642,1.412-0.802,3.494-3.229,4.662
			L459.856-1.845z"/>
		<path fill-rule="evenodd" clip-rule="evenodd" d="M571.218-1.845c2.426,1.166,4.914,0.963,5.552-0.445
			c0.642-1.41-0.808-3.498-3.229-4.658L459.853-61.364c-2.422-1.162-4.912-0.963-5.549,0.447c-0.643,1.412,0.803,3.494,3.23,4.662
			L571.218-1.845z"/>
	</g>
</g>
<g>
	<g>
		<path d="M586.275-368.472c0-1.319-1.072-2.392-2.396-2.392c-1.107,0-2.039,0.752-2.311,1.772h-0.006l-2.301,8.543l-3.363,2.244
			c-1.094,0.729-2.543,1.1-3.99,1.1c-1.445,0-2.889-0.371-3.986-1.1l-2.672-1.78l4.365-4.37l-0.01-0.013
			c0.256-0.233,0.508-0.471,0.764-0.724c8.422-8.425,8.422-22.089-0.006-30.517c-6.297-6.302-15.516-7.894-23.297-4.775l0.004-0.005
			l-0.068,0.03c-0.031,0.01-0.055,0.025-0.082,0.035l-33.784,13.998c-0.906,0.369-1.699,0.907-2.351,1.559
			c-1.991,1.991-2.702,5.056-1.569,7.82c1.264,3.076,4.416,4.804,7.564,4.405l-11.159,11.155l-1.64-1.093
			c-1.098-0.729-2.547-1.093-3.99-1.093s-2.893,0.363-3.99,1.093l-6.408,4.274c-1.093,0.729-2.541,1.1-3.985,1.1
			c-1.442,0-2.893-0.371-3.99-1.1l-3.409-2.271l-2.291-8.515l0,0c-0.275-1.02-1.208-1.772-2.316-1.772
			c-1.323-0.002-2.396,1.073-2.396,2.392c0,0.218,0.031,0.429,0.086,0.626l0,0l17.256,64.104h80.39l17.26-64.104h-0.006
			C586.24-368.043,586.275-368.254,586.275-368.472z M535.928-385.008l-19.147,7.452c-0.797,0.323-1.494,0.135-1.834-0.007
			c-0.346-0.146-0.968-0.502-1.299-1.302c-0.365-0.899-0.16-1.925,0.526-2.611c0.226-0.221,0.487-0.392,0.786-0.516l0.006-0.005
			l0.006-0.003l32.345-13.416l0.006,0.086c2.371-1.247,5.029-1.905,7.785-1.905c4.482,0,8.699,1.744,11.867,4.913
			c3.174,3.174,4.918,7.384,4.918,11.872s-1.744,8.699-4.918,11.869c-0.25,0.251-33.906,33.895-33.906,33.895
			c-0.938,0.935-2.455,0.935-3.393,0c-0.933-0.935-0.933-2.459,0-3.392l15.26-15.255l-3.395-3.392l-22.032,22.039
			c-0.934,0.935-2.457,0.935-3.395,0c-0.933-0.935-0.933-2.459,0-3.392l22.038-22.036l-3.389-3.39l-25.429,25.425
			c-0.936,0.933-2.455,0.933-3.389,0c-0.932-0.938-0.932-2.454,0-3.39l25.429-25.429l-3.39-3.389l-22.039,22.036
			c-0.932,0.935-2.455,0.935-3.388,0c-0.938-0.933-0.938-2.454,0-3.387L535.928-385.008z M565.26-308.535h-73.044l-12.148-45.137
			c1.635,0.817,3.561,1.258,5.54,1.258c2.446,0,4.808-0.674,6.647-1.905l6.408-4.266c0.15-0.105,0.621-0.293,1.328-0.293
			c0.702,0,1.178,0.188,1.328,0.293l0.843,0.562l-2.999,2.993c-2.807,2.81-2.807,7.364,0,10.169
			c0.663,0.667,1.426,1.168,2.236,1.517c-1.573,2.75-1.188,6.313,1.159,8.658c2.346,2.346,5.905,2.727,8.651,1.158
			c0.353,0.807,0.857,1.568,1.521,2.229c2.808,2.81,7.359,2.81,10.167,0l1.984-1.982c0.342,0.719,0.813,1.393,1.408,1.982
			c2.809,2.81,7.36,2.81,10.169,0l25.332-25.332l3.469,2.313c1.844,1.231,4.201,1.905,6.648,1.905c1.965,0,3.869-0.434,5.504-1.238
			L565.26-308.535z"/>
	</g>
</g>
<g>
	<g>
		<g>
			<path d="M515.536-230.177c0-1.328-1.072-2.403-2.4-2.403c-1.113,0-2.047,0.755-2.32,1.777l-2.309,8.565l-3.373,2.246
				c-1.098,0.736-2.547,1.105-4,1.105c-1.449,0-2.898-0.369-3.996-1.105l-6.422-4.279c-1.104-0.732-2.553-1.1-4-1.1
				c-1.455,0-2.902,0.367-4.002,1.1l-6.422,4.279c-1.104,0.736-2.547,1.105-3.994,1.105c-1.455,0-2.904-0.369-4.002-1.105
				l-6.422-4.279c-1.104-0.732-2.553-1.1-4-1.1c-1.451,0-2.902,0.367-4,1.1l-6.422,4.279c-1.098,0.736-2.55,1.105-4.001,1.105
				c-1.449,0-2.897-0.369-4.001-1.105l-6.42-4.279c-1.1-0.732-2.549-1.1-3.998-1.1c-1.453,0-2.902,0.367-4,1.1l-6.422,4.279
				c-1.099,0.736-2.547,1.105-4.001,1.105c-1.448,0-2.9-0.369-3.999-1.105l-3.418-2.279l-2.299-8.532
				c-0.275-1.022-1.209-1.777-2.321-1.777c-1.329,0-2.403,1.075-2.403,2.403c0,0.214,0.031,0.424,0.087,0.623h-0.005l17.307,64.272
				h80.594l17.305-64.272h-0.004C515.507-229.753,515.536-229.963,515.536-230.177z M494.472-170.091h-73.23l-12.187-45.254
				c1.64,0.82,3.569,1.262,5.555,1.262c2.454,0,4.82-0.678,6.667-1.908l6.42-4.281c0.153-0.098,0.627-0.29,1.336-0.29
				c0.707,0,1.178,0.192,1.328,0.29l6.424,4.281c1.844,1.23,4.213,1.908,6.667,1.908c2.456,0,4.823-0.678,6.665-1.908l6.422-4.281
				c0.154-0.098,0.627-0.29,1.336-0.29c0.707,0,1.18,0.192,1.332,0.29l6.418,4.281c1.846,1.23,4.217,1.908,6.674,1.908
				c2.451,0,4.816-0.678,6.662-1.908l6.422-4.281c0.15-0.098,0.627-0.29,1.334-0.29s1.178,0.192,1.334,0.29l6.422,4.281
				c1.844,1.23,4.211,1.908,6.662,1.908c1.969,0,3.885-0.434,5.514-1.244L494.472-170.091z"/>
		</g>
	</g>
	<g>
		<path fill-rule="evenodd" clip-rule="evenodd" d="M456.751-182.27v-4.03h1.951v-2.966h-1.951v-9.908h-4.737l-6.206,10.302v2.572
			h7.295v4.03H456.751L456.751-182.27z M449.376-189.266l0.028-0.05l2.179-3.694c0.557-1.065,1.012-2.051,1.543-3.144h0.076
			c-0.047,1.093-0.1,2.128-0.1,3.144v3.744H449.376L449.376-189.266z M466.382-199.457c-4.258,0-6.262,3.849-6.262,8.761
			c0.023,4.79,1.898,8.713,6.154,8.713c4.182,0,6.232-3.613,6.232-8.816C472.507-195.427,470.757-199.457,466.382-199.457
			L466.382-199.457z M466.325-196.466c1.545,0,2.332,1.975,2.332,5.72c0,3.85-0.807,5.773-2.307,5.773
			c-1.469,0-2.381-1.848-2.381-5.724C463.97-194.646,464.937-196.466,466.325-196.466z"/>
		<path fill-rule="evenodd" clip-rule="evenodd" d="M474.253-203.555c0.836,0,1.598,0.348,2.15,0.914l0.004,0.003l0,0
			c0.551,0.566,0.893,1.352,0.893,2.208c0,0.862-0.342,1.645-0.893,2.213l0,0h-0.004c-0.553,0.567-1.314,0.921-2.15,0.921
			c-0.838,0-1.6-0.354-2.152-0.921h-0.004l0,0c-0.553-0.568-0.893-1.351-0.893-2.213c0-0.856,0.34-1.642,0.893-2.208l0,0
			l0.004-0.003C472.653-203.207,473.415-203.555,474.253-203.555L474.253-203.555z M475.569-201.783
			c-0.334-0.344-0.801-0.554-1.316-0.554c-0.518,0-0.984,0.21-1.32,0.554v0.006c-0.336,0.341-0.541,0.821-0.541,1.348
			c0,0.531,0.205,1.011,0.541,1.354v0.002c0.336,0.346,0.803,0.559,1.32,0.559c0.516,0,0.982-0.213,1.316-0.559v-0.002
			c0.338-0.344,0.547-0.823,0.547-1.354c0-0.526-0.209-1.007-0.547-1.348V-201.783z"/>
	</g>
</g>
<g id="Add_1_">
	<path d="M717.101-50.865h-81.462c-3.213,0-5.812,2.611-5.812,5.824s2.599,5.816,5.812,5.816h81.462
		c3.213,0,5.824-2.604,5.824-5.816S720.313-50.865,717.101-50.865z"/>
</g>
<g id="Add_10_">
	<path d="M679.373-309.566h-34.906v-34.907c0-3.213-2.611-5.817-5.824-5.817s-5.813,2.604-5.813,5.817v34.907h-34.92
		c-3.213,0-5.811,2.611-5.811,5.824s2.598,5.817,5.811,5.817h34.92v34.907c0,3.22,2.6,5.824,5.813,5.824s5.824-2.604,5.824-5.824
		v-34.907h34.906c3.213,0,5.824-2.604,5.824-5.817S682.586-309.566,679.373-309.566z"/>
</g>
<g>
	<g>
		<path d="M664.798-89.439l27.414-27.398c1.64-1.653,1.64-4.328,0-5.98c-1.655-1.654-4.327-1.654-5.982,0l-24.416,24.44
			l-24.429-24.44c-1.641-1.654-4.327-1.654-5.969,0c-1.652,1.652-1.652,4.327,0,5.98l27.4,27.398
			c0.827,0.841,1.911,1.24,2.996,1.229C662.899-88.21,663.985-88.611,664.798-89.439z"/>
	</g>
</g>
<g>
	<g>
		<path d="M830.822-149.721l-6.47-6.467c-2.635-2.641-6.934-2.641-9.575,0l-34.928,34.927l-4.814,17.652l-1.176,1.176
			c-0.883,0.882-0.883,2.309-0.018,3.19l-0.006,0.044l0.039-0.011c0.443,0.438,1.015,0.655,1.587,0.655
			c0.582,0,1.164-0.217,1.604-0.667l1.182-1.182l17.652-4.809l34.922-34.934C833.468-142.781,833.468-147.08,830.822-149.721z
			 M785.087-120.079l23.25-23.25l9.625,9.63l-23.244,23.245L785.087-120.079z M783.04-115.714l7.312,7.312l-10.053,2.736
			L783.04-115.714z M827.613-143.352l-6.439,6.446l-9.631-9.631l6.441-6.439c0.875-0.871,2.297-0.871,3.166,0l6.469,6.467
			C828.486-145.643,828.486-144.223,827.613-143.352z"/>
		<path d="M833.611-203.803c-0.021-0.35-0.547,0.186-0.664-0.119l-0.545,0.786h0.021l-0.128-1.119
			c-0.144-0.277-0.31-0.971-0.517-1.203c-0.095-0.1-0.183-0.396-0.267-0.469c-0.21-0.194-0.448-0.46-0.741-0.609l-0.322,0.243
			c-0.428-0.161-0.821,0.158-1.221,0.158H702.142c-0.394,0-0.793-0.368-1.204-0.212c-0.133,0.044-0.25-0.125-0.354-0.065
			c-0.256,0.123-0.493,0.177-0.76,0.41l-0.244,0.183c-0.194,0.211-0.36,0.431-0.506,0.714l-0.188,0.337
			c-0.111,0.305-0.178,0.622-0.199,0.972l-0.021,88.751l0.011,0.228c0.022,0.316,0.095,0.631,0.233,1.014
			c0.049,0.116,0.104,0.227,0.178,0.348c0.145,0.272,0.299,0.5,0.486,0.716c0.102,0.105,0.201,0.205,0.289,0.278
			c0.211,0.188,0.438,0.338,0.705,0.477l0.371,2.906c0.438,0.155,0.821,2.944,1.203,2.944h63.543c1.913,0,3.473-2.08,3.473-4
			c0-1.914-1.56-4-3.473-4h-53.558c10.612-12,30.817-26.792,42.085-36.605l2.43,1.04c2.42,2.155,5.633,2.793,9.043,2.793
			c3.411,0,7.024-1.457,9.428-3.601l51.438-45.346v33.142c0,1.914,2.086,3.473,4,3.473c1.92,0,4-1.559,4-3.473v-40.847
			L833.611-203.803z M749.9-157.58c-11.955,10.35-31.35,27.099-43.35,35.353v-73.626L749.9-157.58z M820.047-197.136l-49.945,42.625
			c-2.342,2.098-6.486,1.358-8.85-0.756l-4.344-4.187c-0.022-0.022-0.039,1.237-0.066,1.21l-45.52-38.892H820.047z"/>
	</g>
</g>
<g>
	<g>
		<g>
			<path d="M1058.399-87.029c-6.335-5.087-11.334-7.461-15.732-7.461c-5.359,0-8.805,3.494-12.449,7.195l-1.12,1.131
				c-0.078,0.078-0.322,0.322-1.021,0.322c-1.42,0-3.783-1.004-6.49-2.758c-3.955-2.574-8.95-6.867-14.841-12.754
				c-7.672-7.666-12.572-13.746-14.563-18.079c-1.498-3.257-0.717-4.172-0.627-4.267l1.121-1.104
				c6.434-6.336,12.51-12.321-0.244-28.193c-4.334-5.375-8.615-8.077-13.094-8.266l-0.51-0.006c-6.24,0-11.039,5.043-14.939,9.148
				c-0.645,0.665-1.266,1.32-1.875,1.931c-4.717,4.715-4.799,14.756-0.229,26.861c4.899,12.987,14.557,27.105,27.201,39.743
				c12.631,12.637,26.745,22.295,39.731,27.195c5.881,2.213,11.412,3.383,15.995,3.383c4.737,0,8.504-1.248,10.878-3.617
				c0.521-0.525,1.082-1.061,1.652-1.604l0.316-0.299c4.395-4.166,9.37-8.893,9.104-15.412
				C1066.477-78.43,1063.775-82.712,1058.399-87.029z M978.861-155.398l0.232,0.012c2.658,0.111,5.604,2.152,8.756,6.069
				c9.431,11.732,6.513,14.601,0.697,20.326l-1.137,1.132c-5.354,5.354-0.673,14.813,15.178,30.661
				c6.17,6.163,11.483,10.712,15.796,13.52c6.657,4.327,11.717,4.833,14.873,1.659l1.148-1.16c3.078-3.117,5.31-5.369,8.448-5.369
				c2.913,0,6.687,1.936,11.86,6.096c3.923,3.146,5.97,6.092,6.075,8.749c0.159,3.851-3.789,7.601-7.341,10.974
				c-0.697,0.66-1.375,1.309-2.02,1.947c-1.242,1.248-3.545,1.902-6.657,1.902c-3.933,0-8.771-1.037-13.979-3.006
				c-12.228-4.611-25.6-13.792-37.659-25.848c-12.062-12.066-21.24-25.436-25.857-37.662c-3.561-9.447-4.004-17.741-1.108-20.637
				c0.518-0.517,1.043-1.065,1.588-1.632l0.442-0.46C971.434-151.536,975.105-155.398,978.861-155.398z"/>
			<path d="M1042.622-116.969c0.305,0.727,0.876,1.287,1.613,1.587c0.351,0.139,0.722,0.211,1.099,0.211
				c1.204,0,2.274-0.716,2.724-1.825c2.979-7.351,1.282-15.723-4.326-21.331c-3.655-3.661-8.749-5.758-13.969-5.758
				c-2.813,0-5.532,0.582-8.072,1.735c-0.716,0.322-1.266,0.905-1.542,1.632c-0.271,0.737-0.25,1.536,0.071,2.246
				c0.646,1.438,2.464,2.125,3.884,1.477c5.109-2.292,11.533-1.121,15.474,2.818c3.938,3.943,5.131,9.818,3.04,14.962
				C1042.316-118.489,1042.321-117.696,1042.622-116.969z"/>
			<path d="M1017.036-152.64c4-1.809,8.271-2.729,12.691-2.729c8.223,0,16.238,3.301,21.985,9.054
				c8.826,8.82,11.5,21.996,6.813,33.563c-0.301,0.727-0.294,1.525,0.005,2.246c0.306,0.727,0.877,1.282,1.604,1.576
				c0.36,0.144,0.727,0.222,1.108,0.222c1.203,0,2.274-0.722,2.725-1.837c5.581-13.758,2.408-29.43-8.099-39.932
				c-6.842-6.846-16.371-10.768-26.152-10.768c-5.265,0-10.347,1.087-15.107,3.239c-1.47,0.666-2.13,2.413-1.464,3.895
				C1013.783-152.69,1015.527-151.986,1017.036-152.64z"/>
		</g>
	</g>
</g>
<g>
	<path id="Facebook_2_" d="M987.857-236.944c0,2.502,0,13.664,0,13.664h-10.014v16.715h10.014v49.663h20.571v-49.663h13.807
		c0,0,1.287-8.011,1.916-16.775c-1.793,0-15.645,0-15.645,0s0-9.726,0-11.423c0-1.709,2.246-4.011,4.459-4.011s6.879,0,11.211,0
		c0-2.274,0-10.136,0-17.397c-5.779,0-12.348,0-15.238,0C987.354-256.171,987.857-239.44,987.857-236.944z"/>
</g>
<g>
	<g>
		<path d="M923.771-295.32c-3.223,1.432-6.679,2.397-10.313,2.83c3.711-2.219,6.552-5.747,7.894-9.937
			c-3.482,2.059-7.328,3.551-11.417,4.361c-3.276-3.495-7.943-5.676-13.119-5.676c-9.92,0-17.963,8.05-17.963,17.969
			c0,1.403,0.16,2.779,0.467,4.095c-14.94-0.75-28.183-7.906-37.043-18.773c-1.547,2.646-2.43,5.736-2.43,9.025
			c0,6.236,3.18,11.739,7.994,14.963c-2.945-0.101-5.714-0.91-8.145-2.264v0.228c0,8.704,6.203,15.971,14.418,17.625
			c-1.502,0.399-3.096,0.627-4.737,0.627c-1.159,0-2.279-0.117-3.384-0.334c2.291,7.141,8.921,12.338,16.781,12.478
			c-6.146,4.821-13.892,7.683-22.313,7.683c-1.454,0-2.88-0.088-4.288-0.249c7.955,5.104,17.396,8.089,27.544,8.089
			c33.058,0,51.126-27.383,51.126-51.128l-0.056-2.33C918.318-288.552,921.37-291.719,923.771-295.32z"/>
	</g>
</g>
<g>
	<g>
		<path d="M786.326,63.127c10.834,0,19.648-8.813,19.648-19.66c0-10.834-8.814-19.654-19.648-19.654
			c-10.84,0-19.654,8.82-19.654,19.654C766.672,54.313,775.486,63.127,786.326,63.127z M786.326,29.432
			c7.738,0,14.029,6.302,14.029,14.035c0,7.744-6.291,14.041-14.029,14.041c-7.744,0-14.035-6.297-14.035-14.041
			C772.291,35.734,778.582,29.432,786.326,29.432z"/>
		<path d="M786.326,2.515c-22.584,0-40.957,18.375-40.957,40.953c0,21.914,37.219,66.521,38.793,68.402
			c0.533,0.648,1.32,1.016,2.164,1.016c0.826,0,1.615-0.365,2.152-1.01c3.979-4.756,38.795-47.099,38.795-68.408
			C827.273,20.887,808.906,2.515,786.326,2.515z M786.326,8.135c19.473,0,35.326,15.854,35.326,35.332
			c0,17.015-27.631,52.58-35.326,62.162c-7.699-9.57-35.332-45.115-35.332-62.162C750.994,23.989,766.844,8.135,786.326,8.135z"/>
	</g>
</g>
<g>
	<path fill="#F5E8C9" d="M736.688,145.977H841.48v90.25H736.779L736.688,145.977z"/>
	<path fill="#D18E19" d="M731.264,167.66v87.357c0,4.246,3.436,6.594,7.68,6.594h100.279c4.246,0,7.676-2.348,7.676-6.594V167.66
		C846.898,167.748,731.355,167.66,731.264,167.66z M747.529,153.297l-10.842-7.318v18.068h10.842V153.297L747.529,153.297z
		 M841.48,145.977l-10.842,7.229v10.842h10.842V145.977z"/>
	<path fill="#E4C44F" d="M747.529,167.66v-14.455l-16.352,14.455H747.529z M830.639,153.205v14.455h16.443L830.639,153.205z"/>
</g>
<g>
	<g>
		<g>
			<path d="M812.035,47.969c-12.643,0-22.906-10.281-22.906-22.91V-5.251c0-3.998,3.247-7.25,7.238-7.25h6.674
				c1.666,0,3.016,1.355,3.016,3.029c0,1.67-1.35,3.02-3.016,3.02h-6.674c-0.664,0-1.194,0.533-1.194,1.201v30.311
				c0,9.302,7.55,16.865,16.862,16.865c9.293,0,16.851-7.563,16.851-16.865V-5.251c0-0.668-0.546-1.201-1.217-1.201h-6.659
				c-1.674,0-3.031-1.35-3.031-3.02c0-1.674,1.357-3.029,3.031-3.029h6.659c4.005,0,7.261,3.252,7.261,7.25v30.311
				C834.93,37.688,824.656,47.969,812.035,47.969z"/>
			<path d="M837.92,98.229c-15.951,0-28.908-12.975-28.908-28.908V56.192c0-1.662,1.35-3.012,3.023-3.012
				c1.662,0,3.007,1.35,3.007,3.012v13.129c0,12.621,10.257,22.871,22.878,22.871c12.613,0,22.877-10.25,22.877-22.871v-3.1
				c0-1.664,1.352-3.008,3.012-3.008c1.669,0,3.021,1.344,3.021,3.008v3.1C866.83,85.254,853.854,98.229,837.92,98.229z"/>
			<g>
				<path d="M862.546,29.856c-2.685,0-4.886,2.199-4.886,4.891c0,2.699,2.201,4.895,4.886,4.895c2.709,0,4.911-2.194,4.911-4.895
					C867.457,32.055,865.255,29.856,862.546,29.856z"/>
				<path d="M879.973,34.094c0-9.078-7.396-16.48-16.496-16.48c-9.078,0-16.473,7.402-16.473,16.48
					c0,8.164,5.971,14.953,13.779,16.25v7.354c0,0,0.679-1.342,3.24-1.342c2.561,0,3.219,1.301,3.219,1.301v-7.526
					C874.531,48.424,879.973,41.889,879.973,34.094z M863.477,45.959c-6.529,0-11.859-5.318-11.859-11.865
					s5.33-11.866,11.859-11.866c6.555,0,11.874,5.319,11.874,11.866S870.031,45.959,863.477,45.959z"/>
			</g>
		</g>
	</g>
</g>
<g>
	<g>
		<path d="M1009.972,124.813c-1.678,0-3.036,1.35-3.036,3.012v3.088c0,12.568-10.212,22.801-22.789,22.801
			c-12.554,0-22.782-10.232-22.782-22.801v-13.084c0-1.662-1.351-3.006-3.004-3.006c-1.677,0-3.019,1.344-3.019,3.006v13.084
			c0,15.893,12.931,28.814,28.805,28.814c15.897,0,28.82-12.924,28.82-28.814v-3.088
			C1012.967,126.162,1011.632,124.813,1009.972,124.813z"/>
		<path d="M1028.981,114.197c-0.346-6.01-2.905-11.939-7.247-16.121c-4.464-4.332-10.368-7.049-16.604-7.049h-0.415
			c-6.229,0-12.134,2.785-16.604,7.129c-1.78,1.721-3.285,3.883-4.444,6.053c-1.15-2.17-2.648-4.43-4.441-6.16
			c-4.473-4.342-10.37-7.02-16.592-7.02h-0.436c-6.229,0-12.287,2.785-16.762,7.129c-0.561,0.523-1.732,1.469-1.732,2.043v-27.07
			c0-10.015,8.486-19.203,18.494-19.203h0.436c10.015,0,18.17,9.188,18.17,19.203v18.248c0,1.59,1.689,2.867,3.292,2.867
			c1.564,0,3.264-1.277,3.264-2.867V73.131c0-10.015,7.328-19.203,17.356-19.203h0.415c10.035,0,17.15,9.188,17.15,19.203v18.841
			c0,1.596,1.697,2.871,3.263,2.871c1.602,0,3.284-1.275,3.284-2.871V73.131c0-13.175-10.51-23.568-23.697-23.568h-0.415
			c-8.849,0-16.9,4.859-21.049,12.559c-4.139-7.697-12.177-12.559-21.033-12.559h-0.436c-13.167,0-25.049,10.395-25.049,23.568
			v41.818c0,1.578,1.874,2.867,3.482,2.867c1.544,0,3.108-1.193,3.144-2.738c0.362-9.822,8.613-17.484,18.423-17.484h0.436
			c9.801,0,17.772,7.662,18.135,17.484c0.059,1.545,1.313,2.752,2.937,2.752c1.564,0,2.817-1.207,2.863-2.752
			c0.369-9.811,8.324-17.484,18.147-17.484h0.415c9.823,0,17.785,7.361,18.148,17.182c0.059,1.557,1.297,2.459,2.86,2.459h0.038
			c1.578,0,2.87-0.996,2.87-2.576C1029.048,114.451,1029.033,114.4,1028.981,114.197z"/>
	</g>
</g>
<g>
	<g>
		<path d="M956.15-16.026c-1.77,0-3.207,1.439-3.207,3.229v3.299c0,13.484-10.969,24.44-24.442,24.44
			c-13.484,0-24.451-10.956-24.451-24.44V-23.52c0-1.79-1.439-3.235-3.219-3.235c-1.771,0-3.228,1.445-3.228,3.235v14.022
			c0,17.039,13.861,30.898,30.896,30.898c17.031,0,30.893-13.859,30.893-30.898v-3.298C959.393-14.586,957.938-16.026,956.15-16.026
			z"/>
		<path d="M959.303-59.614c0.769-1.062,1.271-2.354,1.271-3.763c0-3.517-2.873-6.381-6.4-6.381h-3.512
			c-1.484,0-2.709,0.978-3.129,2.287c-0.111,0.251-0.171,0.527-0.171,0.814v0.2v6.153v3.076v8.894v0.115
			c0,0.16,0.037,0.31,0.06,0.45c0.258,1.559,1.617,2.723,3.24,2.723h5.004c4.272,0,7.771-3.461,7.771-7.728
			C963.438-55.739,961.746-58.315,959.303-59.614z M951.311-65.805h2.863c1.338,0,2.43,1.087,2.43,2.429
			c0,1.325-1.092,2.414-2.43,2.414h-2.863V-65.805z M955.666-48.994h-4.355v-7.567h4.355c2.104,0,3.793,1.687,3.793,3.79
			C959.459-50.682,957.77-48.994,955.666-48.994z"/>
		<path d="M924.854-42.093v-35.38l-0.028-0.113c0-0.154-0.045-0.289-0.091-0.441c-0.036-0.109-0.088-0.219-0.139-0.309
			c-0.096-0.229-0.223-0.376-0.297-0.503l-0.25-0.287c-0.187-0.147-0.348-0.263-0.504-0.361l-0.146-0.089L897.813-89.67
			c-2.496-0.984-5.271-0.652-7.471,0.854c-2.229,1.508-3.469,4.028-3.469,6.728v2.24c-4.6,0.1-6.9,3.7-6.9,8.154v28.865
			c0,4.479,2.398,8.095,6.895,8.095h30.642C921.553-34.735,924.854-38.011,924.854-42.093z M891.479-82.079
			c0,0-0.34-3.675,4.261-1.963l14.147,5.549h-18.408V-82.079L891.479-82.079z M884.209-42.829v-28.866
			c0-1.58,0.016-2.188,1.58-2.188h35.602v31.827c0,1.14-2.729,2.716-3.883,2.716h-31.719
			C884.225-39.339,884.209-41.265,884.209-42.829z"/>
		<g>
			<path d="M913.717-48.019L903.48-68.631c-0.022-0.015-0.022-0.023-0.022-0.023c-0.037-0.087-0.097-0.15-0.142-0.202
				c-0.021-0.063-0.057-0.114-0.098-0.159c-0.041-0.039-0.086-0.091-0.145-0.128c-0.039-0.063-0.104-0.117-0.134-0.159
				c-0.073-0.043-0.098-0.067-0.149-0.093c-0.07-0.036-0.129-0.1-0.197-0.121c-0.022-0.015-0.037-0.031-0.059-0.042
				c-0.021-0.01-0.06-0.025-0.111-0.037c-0.066-0.024-0.125-0.062-0.215-0.084c-0.051-0.016-0.115-0.025-0.191-0.039
				c-0.059-0.027-0.114-0.027-0.199-0.038c-0.059,0-0.131,0-0.198,0c-0.074,0-0.142,0-0.199,0c-0.059,0.011-0.135,0.011-0.199,0.038
				c-0.043,0.014-0.127,0.023-0.186,0.039c-0.064,0.022-0.142,0.046-0.213,0.084c-0.043,0.012-0.072,0.027-0.119,0.037
				c0,0.011-0.021,0.011-0.029,0.042c-0.066,0.021-0.139,0.085-0.221,0.121c-0.029,0.039-0.08,0.05-0.133,0.093
				c-0.066,0.042-0.104,0.096-0.162,0.159c-0.039,0.037-0.074,0.089-0.134,0.128c-0.028,0.045-0.063,0.111-0.098,0.159
				c-0.051,0.062-0.088,0.115-0.115,0.188c-0.022,0.014-0.045,0.022-0.045,0.037l-10.244,20.612
				c-0.518,1.027-0.09,2.263,0.924,2.765c0.302,0.15,0.619,0.21,0.929,0.21c0.76,0,1.477-0.414,1.854-1.136l1.875-3.767h13.046
				l1.867,3.767c0.361,0.722,1.094,1.136,1.859,1.136c0.305,0,0.619-0.06,0.924-0.21C913.834-45.756,914.24-46.991,913.717-48.019z
				 M897.155-54.074l4.465-8.993l4.473,8.993H897.155z"/>
		</g>
		<path d="M940.291-34.735h30.658c4.495,0,6.895-3.616,6.895-8.095v-28.865c0-4.454-2.289-8.055-6.908-8.154v-2.24
			c0-2.699-1.24-5.22-3.459-6.728c-2.201-1.506-4.983-1.838-7.485-0.854l-25.565,10.095l-0.164,0.089
			c-0.146,0.099-0.309,0.214-0.494,0.361l-0.25,0.287c-0.088,0.127-0.199,0.274-0.309,0.503c-0.045,0.09-0.107,0.199-0.127,0.309
			c-0.054,0.152-0.082,0.287-0.109,0.441l-0.029,0.113v35.38C932.943-38.011,936.24-34.735,940.291-34.735z M966.338-78.493h-18.414
			l14.147-5.549c4.589-1.712,4.267,1.963,4.267,1.963V-78.493z M972.027-39.339h-31.736c-1.136,0-3.871-1.576-3.871-2.716v-31.827
			h35.606c1.564,0,1.58,0.607,1.58,2.188v28.865C973.607-41.265,973.592-39.339,972.027-39.339z"/>
	</g>
</g>
<g>
	<path fill="#F5E8C9" d="M653.693,216.414h47.066v40.535h-47.025L653.693,216.414z"/>
	<path fill="#D18E19" d="M651.258,226.152v39.236c0,1.906,1.543,2.961,3.449,2.961h45.039c1.906,0,3.447-1.055,3.447-2.961v-39.236
		C703.193,226.193,651.299,226.152,651.258,226.152z M658.563,219.701l-4.869-3.287v8.115h4.869V219.701L658.563,219.701z
		 M700.76,216.414l-4.869,3.246v4.869h4.869V216.414z"/>
	<path fill="#E4C44F" d="M658.563,226.152v-6.492l-7.344,6.492H658.563z M695.891,219.66v6.492h7.385L695.891,219.66z"/>
	<path fill="#BE7542" d="M662.781,235.484c-1.217,0-2.23,1.014-2.23,2.23c0,1.219,0.973,2.232,2.23,2.232
		c1.219,0,2.231-1.014,2.231-2.232C665.055,236.498,664.039,235.484,662.781,235.484z M689.967,235.484
		c-1.217,0-2.232,1.014-2.232,2.23c0,1.219,0.976,2.232,2.232,2.232c1.217,0,2.232-1.014,2.232-2.232
		C692.24,236.498,691.225,235.484,689.967,235.484z"/>
	<path fill="#BDA051" d="M676.414,260.148c-8.074,0-14.605-7.141-14.605-15.945c0-0.607,0.445-1.096,1.014-1.096
		c0.569,0,1.015,0.486,1.015,1.096c0,7.588,5.642,13.713,12.578,13.713c6.938,0,12.577-6.166,12.577-13.713
		c0-0.607,0.447-1.096,1.017-1.096s1.015,0.486,1.015,1.096C691.021,253.008,684.449,260.148,676.414,260.148z"/>
	<path fill="#FFFFFF" d="M676.414,258.891c-8.074,0-14.605-6.613-14.605-14.77c0-0.568,0.445-1.014,1.014-1.014
		c0.569,0,1.015,0.445,1.015,1.014c0,7.02,5.642,12.74,12.578,12.74c6.938,0,12.577-5.721,12.577-12.74
		c0-0.568,0.447-1.014,1.017-1.014s1.015,0.445,1.015,1.014C691.021,252.277,684.449,258.891,676.414,258.891z"/>
</g>
<g>
	<path fill="#F5E8C9" d="M684.129,119.426h47.066v40.535H684.17L684.129,119.426z"/>
	<path fill="#D18E19" d="M681.693,129.164V168.4c0,1.906,1.543,2.961,3.449,2.961h45.039c1.906,0,3.447-1.055,3.447-2.961v-39.236
		C733.629,129.205,681.734,129.164,681.693,129.164z M688.998,122.713l-4.869-3.287v8.115h4.869V122.713L688.998,122.713z
		 M731.195,119.426l-4.869,3.246v4.869h4.869V119.426z"/>
	<path fill="#E4C44F" d="M688.998,129.164v-6.492l-7.344,6.492H688.998z M726.326,122.672v6.492h7.385L726.326,122.672z"/>
	<path fill="#BE7542" d="M693.217,138.496c-1.217,0-2.23,1.014-2.23,2.23c0,1.219,0.974,2.232,2.23,2.232
		c1.219,0,2.232-1.014,2.232-2.232C695.49,139.51,694.475,138.496,693.217,138.496z M720.402,138.496
		c-1.217,0-2.231,1.014-2.231,2.23c0,1.219,0.976,2.232,2.231,2.232c1.217,0,2.232-1.014,2.232-2.232
		C722.676,139.51,721.66,138.496,720.402,138.496z"/>
	<path fill="#BDA051" d="M706.852,146.119c8.074,0,14.605,7.141,14.605,15.945c0,0.609-0.445,1.096-1.014,1.096
		c-0.57,0-1.015-0.486-1.015-1.096c0-7.588-5.642-13.713-12.578-13.713c-6.938,0-12.577,6.166-12.577,13.713
		c0,0.609-0.447,1.096-1.017,1.096s-1.015-0.486-1.015-1.096C692.244,153.26,698.816,146.119,706.852,146.119z"/>
	<path fill="#FFFFFF" d="M706.852,147.377c8.074,0,14.605,6.613,14.605,14.771c0,0.566-0.445,1.014-1.014,1.014
		c-0.57,0-1.015-0.445-1.015-1.014c0-7.021-5.642-12.74-12.578-12.74c-6.938,0-12.577,5.721-12.577,12.74
		c0,0.566-0.447,1.014-1.017,1.014s-1.015-0.445-1.015-1.014C692.244,153.99,698.816,147.377,706.852,147.377z"/>
</g>
</svg>
