<?xml version="1.0" encoding="utf-8"?>
<!-- Generator: Adobe Illustrator 16.0.0, SVG Export Plug-In . SVG Version: 6.00 Build 0)  -->
<!DOCTYPE svg PUBLIC "-//W3C//DTD SVG 1.1//EN" "http://www.w3.org/Graphics/SVG/1.1/DTD/svg11.dtd">
<svg version="1.1" id="Capa_1" xmlns="http://www.w3.org/2000/svg" xmlns:xlink="http://www.w3.org/1999/xlink" x="0px" y="0px"
	 width="150px" height="150px" viewBox="0 0 150 150" enable-background="new 0 0 150 150" xml:space="preserve">
<g>
	<g>
		<g>
			<path d="M52.485,80.105c-12.643,0-22.907-10.282-22.907-22.91V26.885c0-3.998,3.247-7.251,7.238-7.251h6.674
				c1.666,0,3.016,1.355,3.016,3.03c0,1.669-1.35,3.02-3.016,3.02h-6.674c-0.664,0-1.194,0.533-1.194,1.201v30.311
				c0,9.301,7.55,16.864,16.863,16.864c9.292,0,16.85-7.563,16.85-16.864V26.885c0-0.668-0.546-1.201-1.217-1.201h-6.659
				c-1.674,0-3.031-1.351-3.031-3.02c0-1.675,1.357-3.03,3.031-3.03h6.659c4.005,0,7.261,3.253,7.261,7.251v30.311
				C75.379,69.824,65.105,80.105,52.485,80.105z"/>
			<path d="M78.369,130.365c-15.951,0-28.908-12.975-28.908-28.908V88.328c0-1.662,1.349-3.012,3.024-3.012
				c1.662,0,3.006,1.35,3.006,3.012v13.129c0,12.621,10.257,22.871,22.878,22.871c12.613,0,22.877-10.25,22.877-22.871v-3.1
				c0-1.664,1.352-3.008,3.012-3.008c1.669,0,3.021,1.344,3.021,3.008v3.1C107.279,117.391,94.303,130.365,78.369,130.365z"/>
			<g>
				<path d="M102.995,61.992c-2.684,0-4.885,2.199-4.885,4.892c0,2.698,2.201,4.894,4.885,4.894c2.709,0,4.911-2.195,4.911-4.894
					C107.906,64.191,105.704,61.992,102.995,61.992z"/>
				<path d="M120.422,66.231c0-9.078-7.396-16.481-16.496-16.481c-9.078,0-16.473,7.403-16.473,16.481
					c0,8.163,5.971,14.953,13.779,16.25v7.355c0,0,0.679-1.342,3.24-1.342c2.561,0,3.219,1.301,3.219,1.301v-7.527
					C114.981,80.561,120.422,74.025,120.422,66.231z M103.926,78.096c-6.529,0-11.859-5.319-11.859-11.865
					c0-6.547,5.33-11.868,11.859-11.868c6.555,0,11.874,5.321,11.874,11.868C115.8,72.777,110.48,78.096,103.926,78.096z"/>
			</g>
		</g>
	</g>
</g>
</svg>
