<?xml version="1.0" encoding="utf-8"?>
<!-- Generator: Adobe Illustrator 16.0.0, SVG Export Plug-In . SVG Version: 6.00 Build 0)  -->
<!DOCTYPE svg PUBLIC "-//W3C//DTD SVG 1.1//EN" "http://www.w3.org/Graphics/SVG/1.1/DTD/svg11.dtd">
<svg version="1.1" id="Capa_1" xmlns="http://www.w3.org/2000/svg" xmlns:xlink="http://www.w3.org/1999/xlink" x="0px" y="0px"
	 width="192.02px" height="192.019px" viewBox="0 0 192.02 192.019" enable-background="new 0 0 192.02 192.019"
	 xml:space="preserve">
<path d="M43.572,37.018h104.875c5.428,0,10.06,1.922,13.903,5.762c3.841,3.838,5.76,8.473,5.76,13.905v78.65
	c0,5.433-1.919,10.066-5.76,13.907c-3.843,3.838-8.475,5.759-13.903,5.759H43.572c-5.428,0-10.061-1.921-13.902-5.759
	c-3.841-3.841-5.76-8.475-5.76-13.907v-78.65c0-5.433,1.919-10.067,5.76-13.905C33.511,38.939,38.144,37.018,43.572,37.018z
	 M155.002,135.335V63.748l-54.895,43.935c-1.164,0.954-2.527,1.435-4.098,1.435c-1.57,0-2.933-0.48-4.099-1.435L37.017,63.748
	v71.587c0,1.809,0.642,3.357,1.92,4.637c1.28,1.283,2.828,1.921,4.635,1.921h104.875c1.804,0,3.355-0.638,4.635-1.921
	C154.36,138.692,155.002,137.144,155.002,135.335z M148.447,50.127H43.572c-0.645,0-1.363,0.121-2.149,0.358l54.587,43.68
	l54.588-43.68C149.81,50.248,149.093,50.127,148.447,50.127z"/>
</svg>
