<?xml version="1.0" encoding="utf-8"?>
<!-- Generator: Adobe Illustrator 16.0.0, SVG Export Plug-In . SVG Version: 6.00 Build 0)  -->
<!DOCTYPE svg PUBLIC "-//W3C//DTD SVG 1.1//EN" "http://www.w3.org/Graphics/SVG/1.1/DTD/svg11.dtd">
<svg version="1.1" id="Capa_1" xmlns="http://www.w3.org/2000/svg" xmlns:xlink="http://www.w3.org/1999/xlink" x="0px" y="0px"
	 width="150px" height="150px" viewBox="0 0 150 150" enable-background="new 0 0 150 150" xml:space="preserve">
<g>
	<g>
		<path d="M139.141,77.855l-6.469-6.467c-2.635-2.641-6.934-2.641-9.575,0l-34.928,34.927l-4.814,17.652l-1.177,1.176
			c-0.882,0.882-0.882,2.309-0.017,3.19l-0.006,0.044l0.039-0.011c0.444,0.438,1.015,0.655,1.587,0.655
			c0.582,0,1.164-0.217,1.604-0.667l1.182-1.182l17.652-4.809l34.922-34.934C141.787,84.796,141.787,80.496,139.141,77.855z
			 M93.406,107.497l23.25-23.25l9.625,9.63l-23.244,23.245L93.406,107.497z M91.359,111.862l7.312,7.312l-10.053,2.736
			L91.359,111.862z M135.934,84.225l-6.44,6.446l-9.631-9.631l6.441-6.439c0.876-0.871,2.297-0.871,3.167,0l6.469,6.467
			C136.806,81.934,136.806,83.354,135.934,84.225z"/>
		<path d="M141.996,23.773c-0.021-0.35-0.58-0.035-0.697-0.339L140.721,24h0.022l-0.128-0.899c-0.144-0.277-0.31-0.861-0.516-1.093
			c-0.095-0.1-0.183-0.341-0.267-0.414c-0.21-0.194-0.448-0.432-0.742-0.582l-0.322,0.036c-0.428-0.161-0.821-0.049-1.221-0.049
			H10.461c-0.394,0-0.793-0.148-1.204,0.008c-0.133,0.044-0.25-0.016-0.354,0.045c-0.255,0.123-0.493,0.232-0.76,0.465l-0.244,0.21
			c-0.194,0.211-0.36,0.445-0.505,0.728L7.205,22.8c-0.111,0.305-0.178,0.625-0.2,0.975l-0.021,88.753l0.011,0.229
			c0.022,0.316,0.094,0.632,0.233,1.015c0.049,0.116,0.104,0.228,0.178,0.349c0.144,0.272,0.299,0.5,0.487,0.716
			c0.101,0.105,0.2,0.205,0.288,0.278c0.211,0.188,0.439,0.338,0.705,0.477l0.371,2.686c0.438,0.155,0.822,2.724,1.204,2.724h63.543
			c1.913,0,3.473-2.08,3.473-4c0-1.914-1.56-4-3.473-4H20.446c10.613-12,30.817-26.572,42.085-36.385l2.43,1.149
			c2.419,2.155,5.632,2.849,9.043,2.849s7.09-1.429,9.492-3.573L135,31.723v33.142c0,1.914,2.086,3.473,4,3.473
			c1.92,0,4-1.559,4-3.473V24.018L141.996,23.773z M58.35,69.996C46.395,80.347,27,97.096,15,105.35V31.723L58.35,69.996z
			 M128.366,30L78.421,72.845c-2.342,2.098-6.486,1.468-8.85-0.646l-4.344-4.132c-0.022-0.022-0.039,1.045-0.066,1.018L19.643,30
			H128.366z"/>
	</g>
</g>
</svg>
