<?xml version="1.0" encoding="utf-8"?>
<!-- Generator: Adobe Illustrator 16.0.0, SVG Export Plug-In . SVG Version: 6.00 Build 0)  -->
<!DOCTYPE svg PUBLIC "-//W3C//DTD SVG 1.1//EN" "http://www.w3.org/Graphics/SVG/1.1/DTD/svg11.dtd">
<svg version="1.1" id="Layer_1" xmlns="http://www.w3.org/2000/svg" xmlns:xlink="http://www.w3.org/1999/xlink" x="0px" y="0px"
	 width="700px" height="700px" viewBox="0 0 700 700" enable-background="new 0 0 700 700" xml:space="preserve">
<path fill="#FFA300" d="M673.921,660.098L631.738,27.361C629.458,11.4,618.058,0,603.237,0H97.048
	C82.227,0,70.827,11.4,68.546,27.361L25.224,663.518c-1.14,9.121,1.14,18.241,6.84,25.082c5.7,6.84,13.681,11.4,21.661,11.4H646.56
	l0,0c15.961,0,28.501-14.821,28.501-31.922C675.061,664.658,675.061,662.378,673.921,660.098z"/>
<path fill="#FF8500" d="M646.56,700L646.56,700c15.961,0,28.501-14.821,28.501-31.922c0-3.42,0-5.7-1.14-7.98L631.738,27.361
	C629.458,11.4,618.058,0,603.237,0H97.048C82.227,0,70.827,11.4,68.546,27.361"/>
<path fill="#FF8500" d="M350.143,370.521c-112.867,0-204.072-140.229-204.072-253.095c0-11.401,9.121-20.521,20.521-20.521
	c11.401,0,20.521,9.121,20.521,20.521c0,90.065,72.964,163.029,163.029,163.029s163.029-72.964,163.029-163.029
	c0-11.401,9.12-20.521,20.521-20.521c11.4,0,20.521,9.121,20.521,20.521C554.214,229.153,463.009,370.521,350.143,370.521z"/>
<g>
	<path fill="#FF7300" d="M187.113,117.427c0-11.401-9.121-20.521-20.521-20.521c-11.4,0-20.521,9.121-20.521,20.521v1.14
		l53.583,62.704C191.673,161.889,187.113,140.228,187.113,117.427z"/>
	<path fill="#FF7300" d="M554.214,117.427c0-11.401-9.12-20.521-20.521-20.521c-11.401,0-20.521,9.121-20.521,20.521
		c0,90.065-72.964,163.029-163.029,163.029c-31.922,0-61.563-9.121-86.645-25.082l98.045,114.006
		C468.709,360.261,554.214,225.733,554.214,117.427z"/>
</g>
<path fill="#FFFFFF" d="M350.143,320.358c-112.867,0-204.072-91.205-204.072-204.072c0-11.401,9.121-20.521,20.521-20.521
	c11.401,0,20.521,9.12,20.521,20.521c0,90.065,72.964,163.029,163.029,163.029s163.029-72.964,163.029-163.029
	c0-11.401,9.12-20.521,20.521-20.521c11.4,0,20.521,9.12,20.521,20.521C554.214,229.153,463.009,320.358,350.143,320.358z"/>
<g>
	<path fill="#E2E2E2" d="M533.693,95.766c-11.401,0-20.521,9.121-20.521,20.521c0,66.124-39.902,123.127-96.905,148.208
		c69.544-23.941,121.986-84.365,134.527-159.609C547.374,99.186,540.533,95.766,533.693,95.766z"/>
	<path fill="#E2E2E2" d="M187.113,116.287c0-11.401-9.121-20.521-20.521-20.521c-7.98,0-13.993,3.906-17.413,9.606
		c12.541,74.104,65.296,135.182,134.84,160.264C227.016,239.414,187.113,182.411,187.113,116.287z"/>
</g>
<path fill="#FF7300" d="M25.224,663.518c-1.14,9.121,1.14,18.241,6.84,25.082c5.7,6.84,13.681,11.4,21.661,11.4H646.56l0,0
	c15.961,0,28.501-14.821,28.501-31.922c0-3.42,0-5.7-1.14-7.98"/>
</svg>
