<?xml version="1.0" encoding="utf-8"?>
<!-- Generator: Adobe Illustrator 16.0.0, SVG Export Plug-In . SVG Version: 6.00 Build 0)  -->
<!DOCTYPE svg PUBLIC "-//W3C//DTD SVG 1.1//EN" "http://www.w3.org/Graphics/SVG/1.1/DTD/svg11.dtd">
<svg version="1.1" id="Capa_1" xmlns="http://www.w3.org/2000/svg" xmlns:xlink="http://www.w3.org/1999/xlink" x="0px" y="0px"
	 width="150px" height="150px" viewBox="0 0 150 150" enable-background="new 0 0 150 150" xml:space="preserve">
<g>
	<g>
		<g>
			<path d="M132.684,43.753c0-1.328-1.075-2.402-2.401-2.402c-1.112,0-2.046,0.754-2.318,1.777l-2.307,8.564l-3.373,2.246
				c-1.099,0.736-2.55,1.105-4.001,1.105c-1.449,0-2.897-0.369-3.999-1.105l-6.422-4.279c-1.104-0.732-2.549-1.1-3.998-1.1
				c-1.453,0-2.902,0.367-4.003,1.1l-6.42,4.279c-1.103,0.736-2.55,1.105-4.001,1.105c-1.448,0-2.899-0.369-4-1.105l-6.42-4.279
				c-1.1-0.732-2.549-1.1-3.999-1.1c-1.451,0-2.9,0.367-3.998,1.1l-6.422,4.279c-1.098,0.736-2.55,1.105-4.001,1.105
				c-1.452,0-2.899-0.369-4.001-1.105l-6.422-4.279c-1.098-0.732-2.547-1.1-3.996-1.1c-1.453,0-2.902,0.367-4,1.1l-6.422,4.279
				c-1.102,0.736-2.549,1.105-4.001,1.105c-1.448,0-2.903-0.369-4.001-1.105l-3.416-2.279l-2.302-8.531
				c-0.275-1.023-1.205-1.777-2.318-1.777c-1.329,0-2.406,1.074-2.406,2.402c0,0.215,0.032,0.424,0.088,0.623h-0.002l17.306,64.273
				h80.59l17.306-64.273h-0.003C132.656,44.177,132.684,43.968,132.684,43.753z M111.615,103.839H38.389L26.205,58.585
				c1.64,0.82,3.569,1.262,5.555,1.262c2.454,0,4.817-0.678,6.665-1.908l6.422-4.281c0.15-0.098,0.627-0.289,1.336-0.289
				c0.707,0,1.179,0.191,1.329,0.289l6.422,4.281c1.845,1.23,4.212,1.908,6.668,1.908c2.454,0,4.82-0.678,6.665-1.908l6.42-4.281
				c0.155-0.098,0.627-0.289,1.336-0.289c0.708,0,1.18,0.191,1.329,0.289l6.423,4.281c1.845,1.23,4.214,1.908,6.667,1.908
				c2.455,0,4.82-0.678,6.663-1.908l6.425-4.281c0.153-0.098,0.627-0.289,1.336-0.289c0.707,0,1.179,0.191,1.333,0.289l6.418,4.281
				c1.85,1.23,4.217,1.908,6.668,1.908c1.97,0,3.88-0.434,5.512-1.244L111.615,103.839z"/>
		</g>
	</g>
	<g>
		<path fill-rule="evenodd" clip-rule="evenodd" d="M19.321,107.89c-2.427,1.166-4.917,0.963-5.554-0.445
			c-0.643-1.41,0.804-3.498,3.23-4.658L130.682,48.37c2.426-1.162,4.914-0.963,5.552,0.447c0.642,1.412-0.802,3.494-3.229,4.662
			L19.321,107.89z"/>
		<path fill-rule="evenodd" clip-rule="evenodd" d="M130.682,107.89c2.426,1.166,4.914,0.963,5.552-0.445
			c0.642-1.41-0.808-3.498-3.229-4.658L19.317,48.37c-2.423-1.162-4.913-0.963-5.55,0.447c-0.643,1.412,0.804,3.494,3.23,4.662
			L130.682,107.89z"/>
	</g>
</g>
</svg>
