<?xml version="1.0" encoding="utf-8"?>
<!-- Generator: Adobe Illustrator 16.0.0, SVG Export Plug-In . SVG Version: 6.00 Build 0)  -->
<!DOCTYPE svg PUBLIC "-//W3C//DTD SVG 1.1//EN" "http://www.w3.org/Graphics/SVG/1.1/DTD/svg11.dtd">
<svg version="1.1" id="Capa_1" xmlns="http://www.w3.org/2000/svg" xmlns:xlink="http://www.w3.org/1999/xlink" x="0px" y="0px"
	 width="150px" height="150px" viewBox="0 0 150 150" enable-background="new 0 0 150 150" xml:space="preserve">
<g>
	<g>
		<g>
			<path d="M132.684,43.754c0-1.328-1.072-2.403-2.4-2.403c-1.113,0-2.047,0.755-2.32,1.777l-2.309,8.565l-3.373,2.246
				c-1.098,0.736-2.547,1.105-4,1.105c-1.449,0-2.898-0.369-3.996-1.105l-6.422-4.279c-1.104-0.732-2.553-1.1-4-1.1
				c-1.455,0-2.902,0.367-4.002,1.1l-6.422,4.279c-1.104,0.736-2.547,1.105-3.994,1.105c-1.455,0-2.904-0.369-4.002-1.105
				l-6.422-4.279c-1.104-0.732-2.553-1.1-4-1.1c-1.451,0-2.902,0.367-4.001,1.1l-6.422,4.279c-1.098,0.736-2.549,1.105-4,1.105
				c-1.449,0-2.897-0.369-4.001-1.105l-6.419-4.279c-1.101-0.732-2.549-1.1-3.998-1.1c-1.454,0-2.903,0.367-4,1.1l-6.422,4.279
				c-1.098,0.736-2.546,1.105-4,1.105c-1.449,0-2.9-0.369-3.999-1.105l-3.419-2.279l-2.299-8.532
				c-0.275-1.022-1.208-1.777-2.321-1.777c-1.329,0-2.404,1.075-2.404,2.403c0,0.214,0.032,0.424,0.087,0.623h-0.005l17.306,64.272
				h80.594l17.305-64.272H132.6C132.654,44.178,132.684,43.968,132.684,43.754z M111.619,103.84h-73.23L26.202,58.586
				c1.639,0.82,3.569,1.262,5.555,1.262c2.454,0,4.82-0.678,6.667-1.908l6.42-4.281c0.153-0.098,0.626-0.29,1.336-0.29
				c0.707,0,1.178,0.192,1.328,0.29l6.423,4.281c1.845,1.23,4.213,1.908,6.667,1.908c2.457,0,4.823-0.678,6.666-1.908l6.422-4.281
				c0.153-0.098,0.627-0.29,1.336-0.29c0.707,0,1.179,0.192,1.332,0.29l6.418,4.281c1.846,1.23,4.217,1.908,6.674,1.908
				c2.451,0,4.816-0.678,6.662-1.908l6.422-4.281c0.15-0.098,0.627-0.29,1.334-0.29s1.178,0.192,1.334,0.29l6.422,4.281
				c1.844,1.23,4.211,1.908,6.662,1.908c1.969,0,3.885-0.434,5.514-1.244L111.619,103.84z"/>
		</g>
	</g>
	<g>
		<path fill-rule="evenodd" clip-rule="evenodd" d="M73.899,91.661v-4.03h1.951v-2.966h-1.951v-9.908h-4.738l-6.207,10.302v2.572
			h7.295v4.03H73.899L73.899,91.661z M66.524,84.665l0.028-0.05l2.179-3.694c0.556-1.065,1.012-2.051,1.543-3.144h0.075
			c-0.047,1.093-0.1,2.128-0.1,3.144v3.744H66.524L66.524,84.665z M83.529,74.474c-4.258,0-6.262,3.849-6.262,8.761
			c0.023,4.79,1.898,8.713,6.154,8.713c4.182,0,6.232-3.613,6.232-8.816C89.654,78.504,87.904,74.474,83.529,74.474L83.529,74.474z
			 M83.473,77.465c1.545,0,2.332,1.975,2.332,5.72c0,3.85-0.807,5.773-2.307,5.773c-1.469,0-2.381-1.848-2.381-5.724
			C81.117,79.284,82.084,77.465,83.473,77.465z"/>
		<path fill-rule="evenodd" clip-rule="evenodd" d="M91.4,70.376c0.836,0,1.598,0.348,2.15,0.914l0.004,0.003l0,0
			c0.551,0.566,0.893,1.352,0.893,2.208c0,0.862-0.342,1.645-0.893,2.213l0,0h-0.004c-0.553,0.567-1.314,0.921-2.15,0.921
			c-0.838,0-1.6-0.354-2.152-0.921h-0.004l0,0c-0.553-0.568-0.893-1.351-0.893-2.213c0-0.856,0.34-1.642,0.893-2.208l0,0
			l0.004-0.003C89.801,70.724,90.563,70.376,91.4,70.376L91.4,70.376z M92.717,72.147c-0.334-0.344-0.801-0.554-1.316-0.554
			c-0.518,0-0.984,0.21-1.32,0.554v0.006c-0.336,0.341-0.541,0.821-0.541,1.348c0,0.531,0.205,1.011,0.541,1.354v0.002
			c0.336,0.346,0.803,0.559,1.32,0.559c0.516,0,0.982-0.213,1.316-0.559v-0.002c0.338-0.344,0.547-0.823,0.547-1.354
			c0-0.526-0.209-1.007-0.547-1.348V72.147z"/>
	</g>
</g>
</svg>
