<?xml version="1.0" encoding="iso-8859-1"?>
<!-- Generator: Adobe Illustrator 19.0.0, SVG Export Plug-In . SVG Version: 6.00 Build 0)  -->
<svg version="1.1" id="Layer_1" xmlns="http://www.w3.org/2000/svg" xmlns:xlink="http://www.w3.org/1999/xlink" x="0px" y="0px"
	 viewBox="0 0 508 508" style="enable-background:new 0 0 508 508;" xml:space="preserve">
<circle style="fill:#84DBFF;" cx="254" cy="254" r="254"/>
<path style="fill:#FF7058;" d="M263.4,383.3l139.9-55c1.6-0.6,2.3-2.4,1.7-3.9l-53-134.7c-0.6-1.6-2.4-2.3-3.9-1.7l-139.9,55
	c-1.6,0.6-2.3,2.4-1.7,3.9l53,134.7C260.1,383.1,261.8,383.9,263.4,383.3z"/>
<path style="fill:#FFFFFF;" d="M407.9,338l-153.7,60.4L153.7,142.9c-0.8-2.1-2.5-3.9-4.6-4.8L100.4,117c-4.4-2-9.5,0-11.4,4.4
	s0.1,9.5,4.5,11.4l45.4,19.8l102.3,260.2c1.8,4.5,6.8,6.7,11.3,4.9l0,0l161.7-63.6c4.5-1.8,6.7-6.8,4.9-11.3
	C417.4,338.4,412.3,336.2,407.9,338z"/>
<circle style="fill:#324A5E;" cx="249" cy="409.1" r="46.1"/>
<circle style="fill:#E6E9EE;" cx="249" cy="409.1" r="29.7"/>
<circle style="fill:#324A5E;" cx="249" cy="409.1" r="9.3"/>
<g>
	<path style="fill:#CED5E0;" d="M248.2,390.6c1.2,3.1-2.5,1-5.6,2.2s-4.4,5.3-5.6,2.2c-1.2-3.1,0.3-6.6,3.4-7.9
		C243.5,385.9,247,387.5,248.2,390.6z"/>
	<path style="fill:#CED5E0;" d="M249.7,427.7c-1.2-3.1,2.5-1,5.6-2.2c3.1-1.2,4.4-5.3,5.6-2.2c1.2,3.1-0.3,6.6-3.4,7.9
		C254.5,432.3,251,430.8,249.7,427.7z"/>
	<path style="fill:#CED5E0;" d="M267.5,408.3c-3.1,1.2-1-2.5-2.2-5.6s-5.3-4.4-2.2-5.6c3.1-1.2,6.6,0.3,7.9,3.4
		C272.2,403.6,270.6,407.1,267.5,408.3z"/>
	<path style="fill:#CED5E0;" d="M230.4,409.9c3.1-1.2,1,2.5,2.2,5.6s5.3,4.4,2.2,5.6s-6.6-0.3-7.9-3.4
		C225.8,414.6,227.3,411.1,230.4,409.9z"/>
</g>
<rect x="260.285" y="214.883" transform="matrix(-0.9306 0.366 -0.366 -0.9306 623.3691 325.9872)" style="fill:#FFD05B;" width="40.999" height="14.4"/>
<g>
</g>
<g>
</g>
<g>
</g>
<g>
</g>
<g>
</g>
<g>
</g>
<g>
</g>
<g>
</g>
<g>
</g>
<g>
</g>
<g>
</g>
<g>
</g>
<g>
</g>
<g>
</g>
<g>
</g>
</svg>
