<?xml version="1.0" encoding="utf-8"?>
<!-- Generator: Adobe Illustrator 16.0.0, SVG Export Plug-In . SVG Version: 6.00 Build 0)  -->
<!DOCTYPE svg PUBLIC "-//W3C//DTD SVG 1.1//EN" "http://www.w3.org/Graphics/SVG/1.1/DTD/svg11.dtd">
<svg version="1.1" id="Capa_1" xmlns="http://www.w3.org/2000/svg" xmlns:xlink="http://www.w3.org/1999/xlink" x="0px" y="0px"
	 width="150px" height="150px" viewBox="0 0 150 150" enable-background="new 0 0 150 150" xml:space="preserve">
<g>
	<g>
		<path d="M118.798,47.841c-3.223,1.432-6.679,2.397-10.313,2.83c3.711-2.219,6.552-5.747,7.894-9.937
			c-3.483,2.059-7.328,3.551-11.417,4.361c-3.277-3.495-7.944-5.676-13.119-5.676c-9.92,0-17.964,8.05-17.964,17.969
			c0,1.403,0.161,2.779,0.467,4.095c-14.94-0.75-28.182-7.906-37.042-18.773c-1.548,2.646-2.43,5.736-2.43,9.025
			c0,6.236,3.179,11.739,7.994,14.963c-2.946-0.101-5.714-0.91-8.145-2.264v0.228c0,8.704,6.203,15.971,14.419,17.625
			c-1.503,0.399-3.096,0.627-4.738,0.627c-1.159,0-2.279-0.117-3.384-0.334c2.292,7.141,8.921,12.338,16.782,12.478
			c-6.147,4.821-13.892,7.683-22.313,7.683c-1.454,0-2.88-0.088-4.288-0.249c7.955,5.104,17.396,8.089,27.544,8.089
			c33.057,0,51.126-27.383,51.126-51.128l-0.056-2.33C113.345,54.609,116.396,51.441,118.798,47.841z"/>
	</g>
</g>
</svg>
