<?xml version="1.0" encoding="utf-8"?>
<!-- Generator: Adobe Illustrator 16.0.0, SVG Export Plug-In . SVG Version: 6.00 Build 0)  -->
<!DOCTYPE svg PUBLIC "-//W3C//DTD SVG 1.1//EN" "http://www.w3.org/Graphics/SVG/1.1/DTD/svg11.dtd">
<svg version="1.1" id="Capa_1" xmlns="http://www.w3.org/2000/svg" xmlns:xlink="http://www.w3.org/1999/xlink" x="0px" y="0px"
	 width="150px" height="150px" viewBox="0 0 150 150" enable-background="new 0 0 150 150" xml:space="preserve">
<g>
	<g>
		<path d="M74.958,80.428c10.834,0,19.649-8.814,19.649-19.66c0-10.834-8.814-19.655-19.649-19.655
			c-10.84,0-19.655,8.821-19.655,19.655C55.303,71.613,64.118,80.428,74.958,80.428z M74.958,46.732
			c7.739,0,14.03,6.302,14.03,14.036c0,7.745-6.291,14.041-14.03,14.041c-7.745,0-14.036-6.296-14.036-14.041
			C60.923,53.034,67.214,46.732,74.958,46.732z"/>
		<path d="M74.958,19.815C52.374,19.815,34,38.188,34,60.768c0,21.913,37.219,66.521,38.794,68.402
			c0.532,0.648,1.32,1.016,2.164,1.016c0.827,0,1.615-0.367,2.153-1.01c3.978-4.756,38.794-47.1,38.794-68.408
			C115.905,38.188,97.538,19.815,74.958,19.815z M74.958,25.435c19.472,0,35.327,15.854,35.327,35.333
			c0,17.015-27.632,52.58-35.327,62.162c-7.7-9.57-35.333-45.114-35.333-62.162C39.625,41.29,55.475,25.435,74.958,25.435z"/>
	</g>
</g>
</svg>
