<?xml version="1.0" encoding="utf-8"?>
<!-- Generator: Adobe Illustrator 16.0.0, SVG Export Plug-In . SVG Version: 6.00 Build 0)  -->
<!DOCTYPE svg PUBLIC "-//W3C//DTD SVG 1.1//EN" "http://www.w3.org/Graphics/SVG/1.1/DTD/svg11.dtd">
<svg version="1.1" id="Layer_1" xmlns="http://www.w3.org/2000/svg" xmlns:xlink="http://www.w3.org/1999/xlink" x="0px" y="0px"
	 width="500px" height="500px" viewBox="0 0 500 500" enable-background="new 0 0 500 500" xml:space="preserve">
<g>
	<path d="M14.829,485.4l32.924-117.004c-21.186-35.943-32.338-76.918-32.338-118.956c0-129.523,105.375-234.841,234.868-234.841
		c129.509,0,234.888,105.318,234.888,234.841c0,129.522-105.379,234.841-234.888,234.841c-40.36,0-79.883-10.34-114.819-29.961
		L14.829,485.4z M141.642,411.611l7.183,4.416c30.493,18.557,65.545,28.398,101.459,28.398
		c107.541,0,195.029-87.484,195.029-194.985c0-107.554-87.488-195.04-195.029-195.04c-107.525,0-195.011,87.486-195.011,195.04
		c0,37.456,10.619,73.847,30.773,105.208l4.836,7.545l-18.95,67.363L141.642,411.611z"/>
	<path d="M183.521,139.568l-15.231-0.838c-4.809-0.28-9.477,1.287-13.11,4.473c-7.407,6.371-19.204,18.782-22.836,34.938
		c-5.419,24.15,2.935,53.611,24.596,83.125c21.637,29.516,61.969,76.753,133.286,96.936c23.03,6.485,41.088,2.124,55.008-6.819
		c11.068-7.044,18.671-18.393,21.41-31.25l2.457-11.349c0.727-3.576-1.062-7.267-4.414-8.835l-51.541-23.698
		c-3.354-1.567-7.268-0.616-9.504,2.344l-20.236,26.163c-1.564,2.016-4.138,2.794-6.539,1.958
		c-13.812-4.863-60.222-24.261-85.658-73.287c-1.119-2.181-0.839-4.753,0.729-6.54l19.313-22.361
		c1.984-2.292,2.487-5.478,1.286-8.274l-22.192-51.933C189.139,141.526,186.54,139.68,183.521,139.568z"/>
</g>
</svg>
